<svg xmlns="http://www.w3.org/2000/svg" width="20" height="20" viewBox="0 0 20 20">
  <g id="Group_327" data-name="Group 327" transform="translate(-352 -88)">
    <rect id="Rectangle_430" data-name="Rectangle 430" width="20" height="20" transform="translate(352 88)" fill="#221980" opacity="0"/>
    <path id="Path_990" data-name="Path 990" d="M369.926,93H366V92a4,4,0,0,0-8,0v1h-3.926l-.823,10.693A4,4,0,0,0,357.24,108h9.52a4,4,0,0,0,3.989-4.307ZM360,92a2,2,0,0,1,4,0v1h-4Zm8.228,13.359a1.981,1.981,0,0,1-1.468.641h-9.52a2,2,0,0,1-1.994-2.153l.68-8.847H358v2h2V95h4v2h2V95h2.074l.68,8.847A1.976,1.976,0,0,1,368.228,105.359Z" fill="#221980"/>
  </g>
</svg>
