<svg xmlns="http://www.w3.org/2000/svg" xmlns:xlink="http://www.w3.org/1999/xlink" width="60" height="36" viewBox="0 0 60 36"><defs><style>.a{fill:#e6e6e6;}.b{fill:#231f20;}.c{fill:url(#a);}</style><linearGradient id="a" x1="0.756" y1="0.901" x2="0.41" y2="0.359" gradientUnits="objectBoundingBox"><stop offset="0" stop-color="#f89f20"/><stop offset="1" stop-color="#e45417"/></linearGradient></defs><g transform="translate(-30 -65)"><rect class="a" width="60" height="36" rx="3" transform="translate(30 65)"/><g transform="translate(35.15 78.271)"><path class="b" d="M36.574,76.249H34.292v7.97h2.27a4.146,4.146,0,0,0,2.844-.92,4,4,0,0,0,1.446-3.06A3.959,3.959,0,0,0,36.574,76.249Zm1.816,5.987a2.945,2.945,0,0,1-2.128.634h-.418V77.6h.418a2.884,2.884,0,0,1,2.128.644,2.685,2.685,0,0,1,.862,1.985A2.733,2.733,0,0,1,38.39,82.236Z" transform="translate(-34.292 -76.021)"/><rect class="b" width="1.555" height="7.971" transform="translate(7.276 0.228)"/><path class="b" d="M45.355,79.329c-.932-.344-1.207-.572-1.207-1,0-.5.488-.883,1.159-.883a1.6,1.6,0,0,1,1.253.646l.814-1.066a3.487,3.487,0,0,0-2.342-.883,2.341,2.341,0,0,0-2.485,2.284c0,1.1.5,1.661,1.961,2.186a6.193,6.193,0,0,1,1.075.454.955.955,0,0,1,.466.824,1.136,1.136,0,0,1-1.207,1.124,1.838,1.838,0,0,1-1.7-1.063l-1,.967a3.1,3.1,0,0,0,2.76,1.518,2.571,2.571,0,0,0,2.749-2.617C47.648,80.549,47.124,79.977,45.355,79.329Z" transform="translate(-32.723 -76.043)"/><path class="b" d="M47.138,80.269a4.128,4.128,0,0,0,4.207,4.16,4.307,4.307,0,0,0,1.95-.464V82.134a2.485,2.485,0,0,1-1.877.874,2.6,2.6,0,0,1-2.677-2.749,2.65,2.65,0,0,1,2.6-2.738,2.608,2.608,0,0,1,1.95.9v-1.83a3.98,3.98,0,0,0-1.913-.49A4.192,4.192,0,0,0,47.138,80.269Z" transform="translate(-31.723 -76.051)"/><path class="b" d="M63.179,81.6l-2.126-5.354h-1.7l3.383,8.175h.837l3.443-8.175H65.332Z" transform="translate(-29.279 -76.021)"/><path class="b" d="M66.326,84.219h4.409V82.87H67.88V80.718h2.75v-1.35H67.88V77.6h2.856V76.249H66.326Z" transform="translate(-27.885 -76.021)"/><path class="b" d="M75.984,78.6c0-1.493-1.027-2.353-2.82-2.353H70.858v7.97h1.554v-3.2h.2l2.152,3.2h1.912l-2.509-3.358A2.12,2.12,0,0,0,75.984,78.6Zm-3.119,1.316h-.454V77.5h.479c.968,0,1.494.406,1.494,1.181C74.385,79.487,73.859,79.919,72.866,79.919Z" transform="translate(-26.979 -76.021)"/><g transform="translate(22.08)"><path class="c" d="M61.172,80.3a4.24,4.24,0,1,1-4.241-4.241A4.24,4.24,0,0,1,61.172,80.3Z" transform="translate(-52.692 -76.059)"/></g></g></g></svg>