<svg xmlns="http://www.w3.org/2000/svg" width="32" height="32.002" viewBox="0 0 32 32.002">
  <defs>
    <style>
      .cls-1 {
        fill: none;
      }

      .cls-2 {
        fill: #ffffff;
      }
    </style>
  </defs>
  <g id="Group_232" data-name="Group 232" transform="translate(-832 -319.998)">
    <rect id="Rectangle_330" data-name="Rectangle 330" class="cls-1" width="32" height="32" transform="translate(832 320)"/>
    <path id="Path_909" data-name="Path 909" class="cls-2" d="M862.177,331.43a6.7,6.7,0,0,0-6.345-2.956l-.088.009c.057-.141.121-.279.166-.427a5.533,5.533,0,0,0-1.86-5.993l-.378-.3a8.133,8.133,0,0,0-10.425.255,5.558,5.558,0,0,0-.353,8.024,5.29,5.29,0,0,0-3.295,6.626,6.478,6.478,0,0,0-5.173,10.89h0A14.015,14.015,0,0,0,844.643,352h.033l9.2-.021a6.491,6.491,0,0,0,3.562-11.907q1.164-.34,2.3-.794a5.292,5.292,0,0,0,2.439-7.848Zm-16.951-7.156h0a5.137,5.137,0,0,1,6.583-.16l.377.3a2.564,2.564,0,0,1-1.3,4.556l-3.111.357a2.544,2.544,0,0,1-2.123-.751l-.566-.579a2.564,2.564,0,0,1,.141-3.723Zm12.107,21.6a3.493,3.493,0,0,1-3.464,3.105l-9.2.021a11,11,0,0,1-8.049-3.487h0a3.5,3.5,0,0,1,2.495-5.881,3.862,3.862,0,0,1,.612.05l5.647.906.034.007c.584.117,1.17.205,1.757.28l7.251,1.163A3.488,3.488,0,0,1,857.333,345.874Zm2.629-10.83a2.281,2.281,0,0,1-1.337,1.449,22.2,22.2,0,0,1-10.929,1.428l-1.794-.287-1.72-.344a2.292,2.292,0,0,1,.2-4.525l11.785-1.31a3.674,3.674,0,0,1,.418-.023,3.717,3.717,0,0,1,3.1,1.662A2.282,2.282,0,0,1,859.962,335.044Z"/>
  </g>
</svg>
