<svg xmlns="http://www.w3.org/2000/svg" width="24" height="24" viewBox="0 0 24 24">
  <path id="Path_915" data-name="Path 915" d="M1047.87,329.369a5.33,5.33,0,0,0-4.216-3.7,5.191,5.191,0,0,0-2.22.121,5.594,5.594,0,0,0-.573-2.207,5.242,5.242,0,0,0-9.457,0,5.6,5.6,0,0,0-.573,2.209,5.194,5.194,0,0,0-2.22-.124,5.33,5.33,0,0,0-4.216,3.7,5.54,5.54,0,0,0,1.295,5.544,5.3,5.3,0,0,0,1.867,1.241,5.562,5.562,0,0,0,1.321,7.4,5.159,5.159,0,0,0,5.528.448,1.755,1.755,0,0,1,3.453,0,5.161,5.161,0,0,0,5.528-.447,5.563,5.563,0,0,0,1.321-7.4,5.3,5.3,0,0,0,1.867-1.241A5.54,5.54,0,0,0,1047.87,329.369Zm-14.378-4.695a2.928,2.928,0,0,1,5.282,0,3.064,3.064,0,0,1-.244,3.174l-2.4,3.393-2.4-3.393A3.064,3.064,0,0,1,1033.492,324.674Zm-6.869,5.439a2.97,2.97,0,0,1,2.842-2.107,2.88,2.88,0,0,1,2.375,1.259l2.4,3.393-3.88,1.3a2.857,2.857,0,0,1-3.011-.743A3.055,3.055,0,0,1,1026.623,330.113Zm6.72,11.744a2.844,2.844,0,0,1-3.088-.25,3.033,3.033,0,0,1-1.186-2.941,2.975,2.975,0,0,1,2.012-2.422l3.88-1.3v4.194A3.006,3.006,0,0,1,1033.344,341.857Zm8.666-.25a2.847,2.847,0,0,1-3.088.25,3.005,3.005,0,0,1-1.618-2.715v-4.194l3.879,1.3a2.975,2.975,0,0,1,2.012,2.422A3.035,3.035,0,0,1,1042.01,341.607Zm2.91-8.4a2.854,2.854,0,0,1-3.011.743l-3.88-1.3,2.4-3.393a2.876,2.876,0,0,1,2.861-1.219,2.936,2.936,0,0,1,2.355,2.067A3.055,3.055,0,0,1,1044.919,333.21Z" transform="translate(-1024.133 -320.602)" fill="#ffffff"/>
</svg>
