<svg xmlns="http://www.w3.org/2000/svg" xmlns:xlink="http://www.w3.org/1999/xlink" width="32" height="32" viewBox="0 0 32 32">
  <defs>
    <clipPath id="clip-path">
      <rect width="30" height="30" fill="none"/>
    </clipPath>
  </defs>
  <g id="Group_249" data-name="Group 249" transform="translate(-1312 -320)">
    <rect id="Rectangle_336" data-name="Rectangle 336" width="32" height="32" transform="translate(1312 320)" fill="none"/>
    <g id="Repeat_Grid_64" data-name="Repeat Grid 64" transform="translate(1313 321)" clip-path="url(#clip-path)">
      <g id="Group_330" data-name="Group 330" transform="translate(-1313 -321)">
        <path id="Path_921" data-name="Path 921" d="M1343,351h-30V321h3v27h27Z" fill="#ffffff"/>
        <path id="Path_922" data-name="Path 922" d="M1343,328c-2.55,0-3.3,3.323-4.163,7.171a28.451,28.451,0,0,1-1.234,4.431,28.327,28.327,0,0,1-1.235-4.431c-.865-3.848-1.612-7.171-4.161-7.171s-3.3,3.323-4.164,7.171a28.335,28.335,0,0,1-1.236,4.434,28.309,28.309,0,0,1-1.238-4.434c-.867-3.848-1.615-7.171-4.166-7.171s-3.3,3.323-4.164,7.17c-.375,1.663-1,4.447-1.555,4.924A.539.539,0,0,1,1316,340v3c2.551,0,3.3-3.323,4.166-7.171a28.281,28.281,0,0,1,1.237-4.435,28.315,28.315,0,0,1,1.24,4.436c.866,3.847,1.613,7.17,4.164,7.17s3.3-3.323,4.164-7.171a28.354,28.354,0,0,1,1.235-4.432,28.283,28.283,0,0,1,1.234,4.432c.866,3.848,1.613,7.171,4.162,7.171s3.3-3.323,4.163-7.171a28.034,28.034,0,0,1,1.235-4.412Z" fill="#ffffff"/>
      </g>
    </g>
  </g>
</svg>
