<svg xmlns="http://www.w3.org/2000/svg" width="60" height="36" viewBox="0 0 60 36"><defs><style>.a{fill:#3e3939;}.b{fill:#ff5f00;}.c{fill:#eb001b;}.d{fill:#f79e1b;}.e{fill:#fff;}</style></defs><g transform="translate(-30 -105)"><rect class="a" width="60" height="36" rx="3" transform="translate(30 105)"/><path class="b" d="M58.508,111.9h-7.82v14.026h7.82" transform="translate(4.138 1.38)"/><path class="c" d="M52.942,119.234a8.944,8.944,0,0,1,3.4-7.015,8.92,8.92,0,1,0,0,14.024,8.9,8.9,0,0,1-3.4-7.012Z" transform="translate(2.378 1.062)"/><path class="d" d="M68.4,119.234a8.933,8.933,0,0,1-14.45,7.01,8.932,8.932,0,0,0,0-14.027,8.934,8.934,0,0,1,14.45,7.014Z" transform="translate(4.791 1.062)"/><path class="e" d="M43.223,131.4v-2.461a1.452,1.452,0,0,0-1.572-1.564,1.632,1.632,0,0,0-1.409.7,1.451,1.451,0,0,0-1.325-.7,1.341,1.341,0,0,0-1.16.576v-.492h-.871V131.4h.871v-2.176c0-.7.371-1.027.953-1.027s.87.371.87,1.028V131.4h.87v-2.176a.914.914,0,0,1,.954-1.027c.583,0,.871.371.871,1.028V131.4h.948Zm12.89-3.941H54.7v-1.192h-.872v1.192h-.786v.778h.786v1.807c0,.906.374,1.44,1.367,1.44a2.277,2.277,0,0,0,1.078-.29l-.246-.737a1.388,1.388,0,0,1-.748.206c-.413,0-.578-.248-.578-.658v-1.766h1.41v-.779Zm7.373-.084a1.166,1.166,0,0,0-1.034.576v-.492h-.871V131.4h.871V129.18c0-.656.292-1.027.829-1.027a2.407,2.407,0,0,1,.538.084l.25-.822a2.711,2.711,0,0,0-.583-.042Zm-11.146.41a2.857,2.857,0,0,0-1.616-.41c-1,0-1.658.493-1.658,1.273,0,.658.5,1.027,1.367,1.15l.419.042c.455.082.7.2.7.41,0,.29-.331.493-.91.493a2.285,2.285,0,0,1-1.327-.41l-.415.656a2.96,2.96,0,0,0,1.7.492c1.16,0,1.822-.533,1.822-1.273,0-.7-.538-1.067-1.367-1.19l-.413-.041c-.373-.041-.664-.122-.664-.368,0-.289.292-.454.748-.454a3.011,3.011,0,0,1,1.242.33l.373-.7Zm23.122-.41a1.162,1.162,0,0,0-1.034.576v-.492h-.871V131.4h.871V129.18c0-.656.292-1.027.829-1.027a2.365,2.365,0,0,1,.534.084l.25-.822A2.662,2.662,0,0,0,75.462,127.373Zm-11.1,2.053a1.981,1.981,0,0,0,2.113,2.056,2.063,2.063,0,0,0,1.41-.454l-.415-.7a1.691,1.691,0,0,1-1.038.37,1.17,1.17,0,0,1-1.2-1.273,1.216,1.216,0,0,1,1.2-1.272,1.683,1.683,0,0,1,1.034.371l.415-.7a2.076,2.076,0,0,0-1.41-.452,1.983,1.983,0,0,0-2.113,2.053Zm8.039,0v-1.968h-.874v.492a1.5,1.5,0,0,0-1.24-.576,2.055,2.055,0,0,0,0,4.109,1.39,1.39,0,0,0,1.238-.574v.492H72.4v-1.975Zm-3.192,0a1.2,1.2,0,1,1,2.4,0,1.2,1.2,0,1,1-2.4,0Zm-10.4-2.052a2.055,2.055,0,0,0,.044,4.109,2.538,2.538,0,0,0,1.618-.533l-.414-.616a2,2,0,0,1-1.159.41,1.117,1.117,0,0,1-1.2-.946h2.942v-.325a1.823,1.823,0,0,0-1.825-2.1Zm0,.744a.964.964,0,0,1,1,.941H57.726A1.041,1.041,0,0,1,58.8,128.118Zm21.592,1.31V125.9h-.875v2.054a1.491,1.491,0,0,0-1.238-.576,2.055,2.055,0,0,0,0,4.109,1.388,1.388,0,0,0,1.237-.574v.492h.876V129.43Zm-3.192,0a1.2,1.2,0,1,1,2.406,0,1.2,1.2,0,1,1-2.406,0Zm-29.093,0V127.46h-.866v.492A1.506,1.506,0,0,0,46,127.376a2.055,2.055,0,0,0,0,4.109,1.4,1.4,0,0,0,1.242-.574v.492h.869V129.43Zm-3.229,0a1.2,1.2,0,1,1,2.4,0,1.2,1.2,0,1,1-2.4,0Z" transform="translate(1.377 4.18)"/></g></svg>