<svg height="139.042" viewBox="0 0 139.042 139.042" width="139.042" xmlns="http://www.w3.org/2000/svg"><path d="m-171.042-12.005h50.912l88.13 88.13v50.912z" fill="#0aa" transform="translate(171.042 12.005)"/><path d="m-48.96 0v-5.628l2.232 5.664h1.356l2.22-5.736v5.7h1.68v-8.4h-2.256l-2.292 6.012-2.3-6.012h-2.26v8.4zm9.612-4.2a4.343 4.343 0 0 0 1.176 3.12 4.113 4.113 0 0 0 3.084 1.224 4.067 4.067 0 0 0 3.072-1.224 4.3 4.3 0 0 0 1.188-3.12 4.273 4.273 0 0 0 -1.188-3.108 4.05 4.05 0 0 0 -3.072-1.236 4.113 4.113 0 0 0 -3.084 1.224 4.343 4.343 0 0 0 -1.176 3.12zm6.672 0a2.985 2.985 0 0 1 -.684 2 2.185 2.185 0 0 1 -1.728.792 2.216 2.216 0 0 1 -1.752-.792 3.018 3.018 0 0 1 -.672-2 2.985 2.985 0 0 1 .672-1.992 2.19 2.19 0 0 1 1.752-.808 2.16 2.16 0 0 1 1.728.8 2.975 2.975 0 0 1 .684 2zm10.068 1.62c0-1.2-.72-1.956-2.292-2.352l-1.224-.312c-.864-.228-1.116-.456-1.116-.936s.432-.82 1.2-.82a3.55 3.55 0 0 1 2.328 1.008l1.032-1.32a4.88 4.88 0 0 0 -3.3-1.236 3.385 3.385 0 0 0 -2.232.708 2.192 2.192 0 0 0 -.84 1.764c0 1.26.732 2.064 2.268 2.436l1.092.264c1 .24 1.26.48 1.26.96 0 .636-.5 1.032-1.38 1.032a3.742 3.742 0 0 1 -2.588-1.16l-1.044 1.32a5.283 5.283 0 0 0 3.7 1.368 3.321 3.321 0 0 0 2.284-.756 2.526 2.526 0 0 0 .852-1.968zm3.732-4.284v6.864h1.812v-6.864h2.472v-1.536h-6.768v1.536zm11.016 6.864v-2.6h1.908a3.059 3.059 0 0 0 2.232-.868 2.943 2.943 0 0 0 .888-2.16 2.538 2.538 0 0 0 -.876-1.972 3.129 3.129 0 0 0 -2.208-.8h-3.756v8.4zm3.192-5.592a1.452 1.452 0 0 1 -1.532 1.5h-1.66v-2.832h1.66a1.38 1.38 0 0 1 1.532 1.332zm3.3 1.392a4.343 4.343 0 0 0 1.176 3.12 4.113 4.113 0 0 0 3.084 1.224 4.067 4.067 0 0 0 3.072-1.224 4.3 4.3 0 0 0 1.188-3.12 4.273 4.273 0 0 0 -1.188-3.108 4.05 4.05 0 0 0 -3.072-1.236 4.113 4.113 0 0 0 -3.084 1.224 4.343 4.343 0 0 0 -1.176 3.12zm6.668 0a2.985 2.985 0 0 1 -.684 2 2.185 2.185 0 0 1 -1.724.8 2.216 2.216 0 0 1 -1.752-.8 3.018 3.018 0 0 1 -.672-2 2.985 2.985 0 0 1 .672-1.992 2.19 2.19 0 0 1 1.752-.808 2.16 2.16 0 0 1 1.728.8 2.975 2.975 0 0 1 .68 2zm5.776 4.2v-2.6h1.908a3.059 3.059 0 0 0 2.232-.864 2.943 2.943 0 0 0 .888-2.16 2.538 2.538 0 0 0 -.876-1.976 3.129 3.129 0 0 0 -2.208-.8h-3.756v8.4zm3.192-5.592a1.452 1.452 0 0 1 -1.536 1.5h-1.656v-2.832h1.656a1.38 1.38 0 0 1 1.536 1.332zm9 2.4a1.652 1.652 0 0 1 -1.752 1.8 1.661 1.661 0 0 1 -1.764-1.8v-5.208h-1.812v5.3a3.019 3.019 0 0 0 1 2.364 3.737 3.737 0 0 0 2.58.876 3.705 3.705 0 0 0 2.568-.876 3.019 3.019 0 0 0 1-2.364v-5.3h-1.82zm9.72 3.192v-1.536h-3.6v-6.864h-1.812v8.4zm6.78-1.548.54 1.548h1.932l-3.12-8.4h-2l-3.112 8.4h1.812l.552-1.548zm-.516-1.476h-2.376l1.188-3.384zm6.548 3.024v-2.88h1.48l1.668 2.88h2.064l-1.824-3.108a2.78 2.78 0 0 0 1.836-2.664 2.439 2.439 0 0 0 -.876-1.872 3.12 3.12 0 0 0 -2.16-.756h-4v8.4zm3.384-5.736a1.392 1.392 0 0 1 -1.512 1.4h-1.872v-2.6h1.872c.904 0 1.516.48 1.516 1.2z" fill="#fff" transform="matrix(.70710678 .70710678 -.70710678 .70710678 77.506 58.535)"/></svg>