<svg xmlns="http://www.w3.org/2000/svg" width="60" height="36" viewBox="0 0 60 36"><defs><style>.a{fill:#1477be;}.b{fill:#fff;}</style></defs><g transform="translate(-30 -185)"><rect class="a" width="60" height="36" rx="3" transform="translate(30 185)"/><path class="b" d="M41.26,201h2.776l-1.39-3.192m23.926.38H62.086v1.476h4.4v1.661h-4.41v1.662H66.66V204.2c.748-.924,1.6-1.759,2.43-2.682l.848-.924c-1.121-1.2-2.244-2.5-3.365-3.69v1.292Z" transform="translate(2.252 2.38)"/><path class="b" d="M80.65,195H73.924l-1.594,1.68L70.836,195H55.131l-1.22,2.9L52.6,195h-11.5L36.25,206.4h5.791l.748-1.867h1.68l.748,1.867H70.738l1.592-1.78,1.594,1.78H80.65l-5.232-5.6Zm-21.222,9.72H57.56v-6.26l-2.8,6.26h-1.6l-2.8-6.26-.1,6.26H46.426l-.748-1.867H41.754l-.846,1.867H38.854l3.461-8.126h2.9l3.174,7.48V196.6h3.175l2.528,5.412,2.242-5.412h3.09Zm17.672,0H74.672l-2.429-2.712-2.428,2.712H61.222v-8.126h8.964l2.154,2.612,2.429-2.612H77.2L73.462,200.7Z" transform="translate(1.25 2)"/></g></svg>