<svg id="Group_316" data-name="Group 316" xmlns="http://www.w3.org/2000/svg" width="24" height="24" viewBox="0 0 24 24">
  <path id="Path_917" data-name="Path 917" d="M1234.419,330.836h-2.209a6.634,6.634,0,0,0-4.047-6.106,6.62,6.62,0,0,0-7.265,1.42,6.6,6.6,0,0,0-1.42,2.106l-2.035-.86a8.871,8.871,0,0,1,4.7-4.7,8.9,8.9,0,0,1,6.878,0,8.826,8.826,0,0,1,5.4,8.14Z" transform="translate(-1216.381 -320.089)" fill="#ffffff"/>
  <path id="Path_918" data-name="Path 918" d="M1223.4,344.476a8.835,8.835,0,0,1,3.439-16.976v2.209a6.628,6.628,0,0,0-2.579,12.732Z" transform="translate(-1216.527 -321.538)" fill="#ffffff"/>
  <path id="Path_919" data-name="Path 919" d="M1232.335,346.835A8.828,8.828,0,0,1,1223.5,338h2.209a6.634,6.634,0,0,0,4.047,6.106,6.621,6.621,0,0,0,7.265-1.42,6.6,6.6,0,0,0,1.42-2.106l2.035.86a8.827,8.827,0,0,1-8.141,5.4Z" transform="translate(-1217.978 -324.307)" fill="#ffffff"/>
  <path id="Path_920" data-name="Path 920" d="M1234,338.419V336.21a6.628,6.628,0,0,0,2.579-12.732l.86-2.035A8.835,8.835,0,0,1,1234,338.419Z" transform="translate(-1220.748 -319.94)" fill="#ffffff"/>
  <g id="Group_238" data-name="Group 238">
    <rect id="Rectangle_335" data-name="Rectangle 335" width="24" height="24" fill="none"/>
  </g>
</svg>
