<svg xmlns="http://www.w3.org/2000/svg" width="48" height="48" viewBox="0 0 48 48">
  <g id="icon-x3dodow" transform="translate(-431 -318)">
    <path id="Rectangle_202" data-name="Rectangle 202" d="M7,0H7a7,7,0,0,1,7,7v3a0,0,0,0,1,0,0H0a0,0,0,0,1,0,0V7A7,7,0,0,1,7,0Z" transform="translate(461 342)" fill="none" stroke="#5073c7" stroke-miterlimit="10" stroke-width="2"/>
    <rect id="Rectangle_203" data-name="Rectangle 203" width="8" height="9" rx="4" transform="translate(464 333)" fill="none" stroke="#5073c7" stroke-miterlimit="10" stroke-width="2"/>
    <path id="Rectangle_204" data-name="Rectangle 204" d="M7,0H7a7,7,0,0,1,7,7V8a0,0,0,0,1,0,0H0A0,0,0,0,1,0,8V7A7,7,0,0,1,7,0Z" transform="translate(435 344)" fill="none" stroke="#5073c7" stroke-miterlimit="10" stroke-width="2"/>
    <rect id="Rectangle_205" data-name="Rectangle 205" width="8" height="9" rx="4" transform="translate(438 335)" fill="none" stroke="#5073c7" stroke-miterlimit="10" stroke-width="2"/>
    <rect id="Rectangle_206" data-name="Rectangle 206" width="8" height="8" rx="4" transform="translate(451 338)" fill="none" stroke="#5073c7" stroke-miterlimit="10" stroke-width="2"/>
    <path id="Rectangle_207" data-name="Rectangle 207" d="M6,0H6a6,6,0,0,1,6,6V6a0,0,0,0,1,0,0H0A0,0,0,0,1,0,6V6A6,6,0,0,1,6,0Z" transform="translate(449 346)" fill="none" stroke="#5073c7" stroke-miterlimit="10" stroke-width="2"/>
    <rect id="Rectangle_208" data-name="Rectangle 208" width="48" height="48" transform="translate(431 318)" fill="none"/>
  </g>
</svg>
