<svg height="36" viewBox="0 0 60 36" width="60" xmlns="http://www.w3.org/2000/svg"><rect fill="#21569a" height="36" rx="3" width="60"/><path d="m57.725 35.92-2.532 11.373h-3.067l2.532-11.373zm12.892 7.344 1.612-4.272.928 4.272zm3.42 4.03h2.832l-2.476-11.374h-2.611a1.4 1.4 0 0 0 -1.306.834l-4.6 10.54h3.224l.638-1.7h3.931l.372 1.7zm-8-3.713c.012-3-4.32-3.168-4.292-4.512.01-.406.414-.84 1.3-.952a6.019 6.019 0 0 1 3.02.51l.538-2.412a8.546 8.546 0 0 0 -2.868-.5c-3.028 0-5.16 1.546-5.176 3.76-.019 1.637 1.522 2.55 2.681 3.1 1.2.557 1.6.914 1.59 1.412-.007.763-.952 1.1-1.831 1.114a6.582 6.582 0 0 1 -3.148-.72l-.554 2.5a9.691 9.691 0 0 0 3.408.6c3.218 0 5.324-1.528 5.334-3.892zm-12.689-7.662-4.966 11.373h-3.24l-2.442-9.074a1.251 1.251 0 0 0 -.727-1 13.241 13.241 0 0 0 -3.024-.967l.072-.33h5.214a1.414 1.414 0 0 1 1.414 1.159l1.291 6.583 3.186-7.74h3.22z" fill="#fff" transform="translate(-28.21 -22.858)"/></svg>