<svg xmlns="http://www.w3.org/2000/svg" width="48" height="48" viewBox="0 0 48 48">
  <defs>
    <style>
      .cls-1 {
        fill: #0aa;
      }

      .cls-2 {
        fill: none;
      }

      .cls-3 {
        fill: #fff;
      }
    </style>
  </defs>
  <g id="Group_335" data-name="Group 335" transform="translate(-754 -1505)">
    <g id="Group_330" data-name="Group 330">
      <circle id="Ellipse_110" data-name="Ellipse 110" class="cls-1" cx="24" cy="24" r="24" transform="translate(754 1505)"/>
    </g>
    <g id="Group_264" data-name="Group 264" transform="translate(384 1199.184)">
      <rect id="Rectangle_374" data-name="Rectangle 374" class="cls-2" width="21" height="21" transform="translate(384 319.816)"/>
      <g id="Group_263" data-name="Group 263" transform="translate(384 320)">
        <path id="Path_929" data-name="Path 929" class="cls-3" d="M394.083,320c-5.654,0-10.083,2.428-10.083,5.529v9.107c0,3.1,4.429,5.529,10.083,5.529s10.083-2.428,10.083-5.529v-9.107C404.166,322.428,399.737,320,394.083,320Zm0,1.952c4.792,0,8.131,1.885,8.131,3.578s-3.34,3.578-8.131,3.578-8.131-1.885-8.131-3.578S389.291,321.952,394.083,321.952Zm0,16.263c-4.792,0-8.131-1.885-8.131-3.578v-5.809a15.932,15.932,0,0,0,16.263,0v5.809C402.214,336.329,398.875,338.214,394.083,338.214Z" transform="translate(-384 -320)"/>
        <path id="Path_930" data-name="Path 930" class="cls-3" d="M398.731,340.3a1.431,1.431,0,1,0,1.431,1.431A1.433,1.433,0,0,0,398.731,340.3Z" transform="translate(-388.648 -327.095)"/>
      </g>
    </g>
  </g>
</svg>
