<?xml version="1.0" encoding="utf-8"?>
<!-- Generator: Adobe Illustrator 24.2.3, SVG Export Plug-In . SVG Version: 6.00 Build 0)  -->
<svg version="1.1" id="Layer_1" xmlns="http://www.w3.org/2000/svg" xmlns:xlink="http://www.w3.org/1999/xlink" x="0px" y="0px"
	 viewBox="0 0 48 48" style="enable-background:new 0 0 48 48;" xml:space="preserve">
<style type="text/css">
	.st0{fill:#00AAAA;}
	.st1{fill:#FFFFFF;}
</style>
<circle id="Ellipse_112" class="st0" cx="24" cy="24" r="24"/>
<path class="st1" d="M30.9,30.9l-1.3-1.3c1.5-1.5,2.3-3.5,2.3-5.6s-0.8-4.1-2.3-5.6C28.1,16.9,26.1,16,24,16s-4.1,0.8-5.6,2.3
	C16.9,19.9,16,21.9,16,24s0.8,4.1,2.3,5.6l-1.3,1.3c-1.8-1.8-2.9-4.3-2.9-6.9s1-5.1,2.9-6.9c1.8-1.8,4.3-2.9,6.9-2.9s5.1,1,6.9,2.9
	c1.8,1.8,2.9,4.3,2.9,6.9S32.8,29.1,30.9,30.9z"/>
<path class="st1" d="M28.1,28.1l-1.3-1.3c1.5-1.5,1.5-4.1,0-5.6c-1.6-1.5-4.1-1.5-5.6,0c-1.5,1.5-1.5,4.1,0,5.6l-1.3,1.3
	c-2.3-2.3-2.3-6,0-8.2c2.3-2.3,6-2.3,8.2,0C30.4,22.2,30.4,25.8,28.1,28.1z"/>
<path class="st1" d="M24,25.8c-0.5,0-0.9-0.2-1.3-0.5c-0.3-0.3-0.5-0.8-0.5-1.3s0.2-1,0.5-1.3c0.7-0.7,1.9-0.7,2.6,0
	c0.3,0.3,0.5,0.8,0.5,1.3c0,0.5-0.2,1-0.5,1.3C24.9,25.7,24.5,25.8,24,25.8z M24,24L24,24L24,24z"/>
</svg>
