<svg xmlns="http://www.w3.org/2000/svg" width="126.969" height="18.679" viewBox="0 0 126.969 18.679">
  <defs>
    <style>
      .cls-1 {
        fill: #221980;
      }
    </style>
  </defs>
  <g id="Group_285" data-name="Group 285" transform="translate(-9.326 -35.875)">
    <g id="EXE" transform="translate(35.715 38.407)">
      <g id="Group_53" data-name="Group 53" transform="translate(58.119 0.278)">
        <path id="Path_78" data-name="Path 78" class="cls-1" d="M322.066,59.325V46.274h5.668a4.533,4.533,0,0,1,2.927.895,2.808,2.808,0,0,1,1.119,2.293,3.362,3.362,0,0,1-1.958,3.02,3.372,3.372,0,0,1,2.237,3.114,3.483,3.483,0,0,1-1.137,2.666,4.111,4.111,0,0,1-2.909,1.063ZM327.79,47.9h-3.953v3.915h3.729a2.17,2.17,0,0,0,2.405-2.125C329.971,48.623,329.132,47.9,327.79,47.9Zm0,5.5h-3.953V57.7h4.232a2.1,2.1,0,0,0,2.181-2.312C330.251,54.216,329.281,53.4,327.79,53.4Z" transform="translate(-322.066 -46.274)"/>
        <path id="Path_79" data-name="Path 79" class="cls-1" d="M372.412,67.265V65.489A3.775,3.775,0,0,1,368.9,67.5c-1.993,0-3.276-1.164-3.276-2.822,0-1.559.967-2.545,3.157-3.1l3.552-.927a1.989,1.989,0,0,0-2.289-1.954,4.408,4.408,0,0,0-3.256,1.8l-1.164-1.007a5.883,5.883,0,0,1,4.479-2.328c2.546,0,3.947,1.322,3.947,3.67v6.433Zm-3.236-1.243a2.819,2.819,0,0,0,2.25-1.085,4.12,4.12,0,0,0,.927-2.743v-.059l-3.177.789c-1.2.3-1.8.848-1.8,1.638C367.38,65.509,368.012,66.022,369.176,66.022Z" transform="translate(-353.854 -54.22)"/>
        <path id="Path_80" data-name="Path 80" class="cls-1" d="M404.936,67.265V57.4h1.658v1.658a3.626,3.626,0,0,1,3.315-1.894,3.414,3.414,0,0,1,2.684,1.125,4,4,0,0,1,1.006,2.8v6.177h-1.736V61.5c0-1.875-.77-2.723-2.289-2.723-1.815,0-2.9,1.46-2.9,3.848v4.637Z" transform="translate(-382.543 -54.22)"/>
        <path id="Path_81" data-name="Path 81" class="cls-1" d="M444.664,58.178a5.371,5.371,0,0,1-1.243-3.67,5.529,5.529,0,0,1,1.263-3.789,4.114,4.114,0,0,1,3.276-1.48,3.959,3.959,0,0,1,3.394,1.717v-4.65h1.736V59.342h-1.658V57.724a3.939,3.939,0,0,1-3.473,1.855A4.25,4.25,0,0,1,444.664,58.178Zm3.591-.138a2.854,2.854,0,0,0,2.269-1.006,4.332,4.332,0,0,0-.02-5.23,2.773,2.773,0,0,0-2.25-1.026c-1.835,0-3.059,1.48-3.059,3.631S446.42,58.04,448.256,58.04Z" transform="translate(-410.629 -46.297)"/>
      </g>
      <g id="Group_54" data-name="Group 54">
        <path id="Path_82" data-name="Path 82" class="cls-1" d="M115.619,58.6l.064-.855.77-.064c.6-.064.748-.214.748-.427V52.3h-5.835v5c0,.192.15.3.791.363l.727.086.064.855h-5.963l.064-.855.77-.086c.534-.064.727-.171.727-.406V46.57c0-.192-.107-.3-.812-.385l-.684-.086-.064-.855h5.963l-.064.855-.77.086c-.6.064-.748.192-.748.406v4.66H117.2v-4.7c0-.214-.15-.3-.791-.363l-.727-.086-.064-.855H121.6l-.064.855-.791.086c-.534.064-.727.171-.727.406V57.279c0,.192.107.3.812.385l.706.086.064.855Z" transform="translate(-106.984 -45.245)"/>
        <path id="Path_83" data-name="Path 83" class="cls-1" d="M168.484,67.988a4.807,4.807,0,0,1-4.938-5.087,5.253,5.253,0,0,1,5.386-5.237,4.751,4.751,0,0,1,4.895,5A5.235,5.235,0,0,1,168.484,67.988Zm1.56-8.7a1.83,1.83,0,0,0-1.411-.62c-1.346,0-2.308,1.368-2.308,3.655,0,1.838.235,3.334.983,4.1a2.127,2.127,0,0,0,1.453.577c1.325,0,2.287-1.432,2.287-3.655C171.049,61.554,170.728,59.994,170.044,59.289Z" transform="translate(-148.262 -54.308)"/>
        <path id="Path_84" data-name="Path 84" class="cls-1" d="M213.124,67.988a4.807,4.807,0,0,1-4.937-5.087,5.253,5.253,0,0,1,5.386-5.237,4.751,4.751,0,0,1,4.895,5A5.235,5.235,0,0,1,213.124,67.988Zm1.56-8.7a1.831,1.831,0,0,0-1.411-.62c-1.347,0-2.308,1.368-2.308,3.655,0,1.838.235,3.334.983,4.1A2.126,2.126,0,0,0,213.4,67c1.325,0,2.287-1.432,2.287-3.655C215.689,61.554,215.369,59.994,214.685,59.289Z" transform="translate(-180.84 -54.308)"/>
        <path id="Path_85" data-name="Path 85" class="cls-1" d="M262.155,67.667l.064-.834.406-.064c.62-.043.727-.192.727-.406V62.174c0-2.116-.77-2.629-1.838-2.629a2.93,2.93,0,0,0-1.753.706v6.113c0,.192.107.32.876.406l.406.064.064.834h-5.044l.064-.834.406-.064c.62-.043.727-.192.727-.406V62.174c0-2.116-.77-2.629-1.838-2.629a3.184,3.184,0,0,0-1.753.663v6.177c0,.214.128.342.812.385l.513.064.064.834h-5.194l.064-.834.513-.064c.513-.043.727-.15.727-.406v-5.13c0-1.346-.171-1.539-.919-1.731l-.427-.128.021-.663,3.826-1.047v1.561h.085a5.465,5.465,0,0,1,3.4-1.561,2.625,2.625,0,0,1,1.817.727,2.824,2.824,0,0,1,.6.983h.085a5.349,5.349,0,0,1,3.591-1.71,2.625,2.625,0,0,1,1.817.727,3.331,3.331,0,0,1,.791,2.48v5.493c0,.192.107.32.876.406l.449.064.064.834Z" transform="translate(-211.225 -54.308)"/>
      </g>
    </g>
    <g id="Group_55" data-name="Group 55" transform="translate(9.326 35.875)">
      <path id="Path_86" data-name="Path 86" class="cls-1" d="M28,44.675l-5.51-.423a3.114,3.114,0,0,1-2.866-2.866l-.423-5.51H18.126l-.427,5.56a3.056,3.056,0,0,1-2.813,2.813l-5.56.427v1.079l5.56.427A3.056,3.056,0,0,1,17.7,48.994l.427,5.56H19.2l.427-5.56a3.056,3.056,0,0,1,2.813-2.813L28,45.754Z" transform="translate(-9.326 -35.875)"/>
      <circle id="Ellipse_1" data-name="Ellipse 1" class="cls-1" cx="1.557" cy="1.557" r="1.557" transform="translate(14.009 1.557)"/>
    </g>
  </g>
</svg>
