<svg height="36" viewBox="0 0 60 36" width="60" xmlns="http://www.w3.org/2000/svg"><path d="m4.8 6h50.4v21.6h-50.4z" fill="#fff"/><g fill="#009cde"><path d="m126.977 319.174a1.8 1.8 0 0 0 -1.8 1.548 1.373 1.373 0 0 0 .253 1.13 1.358 1.358 0 0 0 1.08.434 1.792 1.792 0 0 0 1.816-1.537 1.383 1.383 0 0 0 -.272-1.138 1.355 1.355 0 0 0 -1.077-.437z" transform="translate(-82.97 -302.165)"/><path d="m120.4 316.841h-.233a.28.28 0 0 0 -.276.236l-.356 2.252h.508c.89 0 1.812 0 2-1.206a1.119 1.119 0 0 0 -.163-.936c-.305-.346-.88-.346-1.48-.346z" transform="translate(-84.094 -302.632)"/><path d="m107 319.174a1.8 1.8 0 0 0 -1.8 1.548 1.248 1.248 0 0 0 1.333 1.565 1.792 1.792 0 0 0 1.816-1.537 1.391 1.391 0 0 0 -.272-1.138 1.355 1.355 0 0 0 -1.077-.438z" transform="translate(-86.965 -302.165)"/><path d="m146.4 305h-52.8a3.6 3.6 0 0 0 -3.6 3.6v28.8a3.6 3.6 0 0 0 3.6 3.6h52.8a3.6 3.6 0 0 0 3.6-3.6v-28.8a3.6 3.6 0 0 0 -3.6-3.6zm-43.763 18.565h-1.063a.466.466 0 0 0 -.461.395l-.367 2.324a.468.468 0 0 1 -.461.395h-1.6a.28.28 0 0 1 -.277-.324l1.358-8.616a.467.467 0 0 1 .462-.394h3.36a3.116 3.116 0 0 1 2.449.858 2.588 2.588 0 0 1 .428 2.168 3.45 3.45 0 0 1 -3.828 3.194zm10.4 2.719a.466.466 0 0 1 -.461.394h-1.45a.279.279 0 0 1 -.276-.324l.071-.448a3.078 3.078 0 0 1 -2.227.922 2.513 2.513 0 0 1 -2.026-.818 3.037 3.037 0 0 1 -.6-2.472 3.7 3.7 0 0 1 3.593-3.235 2.29 2.29 0 0 1 1.9.674l.112.163.072-.45a.279.279 0 0 1 .276-.236h1.609a.279.279 0 0 1 .276.323zm3.632 2.572h-1.615a.28.28 0 0 1 -.229-.442l1.675-2.364-1.781-5.227a.279.279 0 0 1 .265-.37h1.589a.47.47 0 0 1 .449.332l.944 3.157 2.231-3.286a.469.469 0 0 1 .386-.2h1.617a.28.28 0 0 1 .23.439l-5.378 7.763a.464.464 0 0 1 -.386.198zm9.937-5.291h-1.066a.467.467 0 0 0 -.461.395l-.386 2.443a.327.327 0 0 1 -.322.276h-1.724a.28.28 0 0 1 -.276-.324l1.358-8.616a.467.467 0 0 1 .461-.394h3.361a3.113 3.113 0 0 1 2.449.855 2.584 2.584 0 0 1 .428 2.168 3.45 3.45 0 0 1 -3.828 3.197zm10.4 2.719a.465.465 0 0 1 -.461.394h-1.448a.28.28 0 0 1 -.277-.324l.072-.448a3.078 3.078 0 0 1 -2.227.922 2.516 2.516 0 0 1 -2.027-.818 3.041 3.041 0 0 1 -.6-2.472 3.7 3.7 0 0 1 3.592-3.235 2.286 2.286 0 0 1 1.9.674l.114.163.071-.45a.278.278 0 0 1 .276-.236h1.608a.281.281 0 0 1 .278.323zm3.235 0a.468.468 0 0 1 -.462.395h-1.386a.28.28 0 0 1 -.276-.324l1.379-8.773a.282.282 0 0 1 .276-.238h1.553a.28.28 0 0 1 .276.324z" transform="translate(-90 -305)"/><path d="m100.422 316.841h-.233a.28.28 0 0 0 -.276.236l-.356 2.252h.508c.89 0 1.812 0 2-1.206a1.119 1.119 0 0 0 -.163-.936c-.302-.346-.873-.346-1.48-.346z" transform="translate(-88.089 -302.632)"/></g></svg>