<?xml version="1.0" encoding="utf-8"?>
<!-- Generator: Adobe Illustrator 24.2.3, SVG Export Plug-In . SVG Version: 6.00 Build 0)  -->
<svg version="1.1" id="Layer_1" xmlns="http://www.w3.org/2000/svg" xmlns:xlink="http://www.w3.org/1999/xlink" x="0px" y="0px"
	 viewBox="0 0 2586.3 110" style="enable-background:new 0 0 2586.3 110;" xml:space="preserve">
<style type="text/css">
	.st0{fill:none;}
	.st1{fill:#9AA6E6;}
	.st2{opacity:0.6;fill:#9AA6E6;}
	.st3{opacity:0.75;fill:#9AA6E6;}
	.st4{display:none;}
	.st5{display:inline;fill:#9AA6E6;}
	.st6{display:none;opacity:0.5;}
</style>
<rect y="0.1" class="st0" width="2586.3" height="109.8"/>
<g>
	<polygon class="st1" points="245.8,23.6 243.3,11.6 245.8,23.6 	"/>
	<polygon class="st1" points="216.7,27.3 216.7,27.3 221.1,74.7 221.1,74.6 	"/>
	<polygon class="st2" points="216.7,27.3 216.7,27.3 216.7,27.3 245.8,23.6 243.3,11.6 214,2.7 216.7,27.3 216.7,27.3 	"/>
	<path class="st2" d="M268.3,78.7l0.5,4l0,0l0.2,2.3l28.1,4.8l0.6-12.1l-18.4-3.1C276.7,77.1,272.8,78.4,268.3,78.7z"/>
	<path class="st3" d="M221.1,78v-3.3l-4.5-47.4h0l0,0L155.5,35l35.1,61l78.5-11l-40.6-7H221.1z M216.1,75.4c-4.1,2.5-8.4,3.3-13,3.3
		c-14,0-23.1-9.5-23.1-23.1c0-13.7,9.5-23.1,23.1-23.1c4.5,0,8.6,0.9,12.2,3v10.2c-2.9-2.9-7.1-4.7-12.2-4.7
		c-8.1,0-13.3,6-13.3,14.5c0,8.8,5.7,14.5,13.7,14.5c5.1,0,8.8-1.5,12.6-4.6V75.4z"/>
	
		<rect x="216.7" y="27.3" transform="matrix(0.9968 -7.974522e-02 7.974522e-02 0.9968 -1.4845 17.3664)" class="st2" width="0" height="0"/>
	
		<rect x="216.7" y="27.3" transform="matrix(0.9968 -7.974522e-02 7.974522e-02 0.9968 -1.4845 17.3664)" class="st2" width="0" height="0"/>
	<polygon class="st2" points="268.8,82.7 269.1,85 268.8,82.7 	"/>
	<polygon class="st2" points="268.8,82.7 269.1,85 268.8,82.7 	"/>
	<polygon class="st1" points="216.7,27.3 216.7,27.3 221.1,74.6 221.1,33.2 247.7,33.2 245.8,23.6 245.8,23.6 	"/>
	<path class="st1" d="M268.3,78.7c-0.6,0-1.2,0.1-1.8,0.1c-4.9,0-9.3-1.4-12.1-3.2V66c0,0,0,0,0,0l-5-24.4h-18.9v9.8h17.6v8.2h-17.6
		v10h19.6V78h-21.7l40.6,7l-0.3-2.3L268.3,78.7z"/>
	<polygon class="st3" points="242.5,7.6 243.3,11.6 300.1,28.9 297.8,77.7 309.5,79.4 318.9,1.9 	"/>
	<path class="st1" d="M243.3,11.6l2.5,12l2,9.6h2v8.4h-0.3l5,24.4c3.4,2.6,7.1,4.6,12.1,4.6c3.8,0,7.2-1.4,7.2-5
		c0-3.4-2.8-4.7-7.5-6c-9-2.5-12.7-6.3-12.7-13.8c0-8.5,6.6-13.3,14.9-13.3c5,0,8.7,1.3,11.9,3.3v9.4c-3.5-2.9-7.2-4.6-11.6-4.6
		c-3.8,0-6,1.9-6,4.7c0,3.2,2.6,4.4,7.8,5.9c9,2.6,12.4,6.6,12.4,14.1c0,4.1-1.4,7.2-3.7,9.3l18.4,3.1l0,0l2.3-48.8L243.3,11.6z"/>
</g>
<g>
	<path class="st1" d="M321.7,76v-3.4l4.3-4.2c10.4-9.9,15-15.1,15.1-21.2c0-4.1-2-7.9-8-7.9c-3.7,0-6.7,1.9-8.6,3.4l-1.7-3.9
		c2.8-2.4,6.8-4.1,11.5-4.1c8.7,0,12.4,6,12.4,11.8c0,7.5-5.4,13.5-14,21.8l-3.2,3v0.1h18.2V76H321.7z"/>
	<path class="st1" d="M380.7,55.2c0,13.8-5.1,21.4-14.1,21.4c-7.9,0-13.3-7.4-13.4-20.8c0-13.6,5.9-21.1,14.1-21.1
		C375.8,34.7,380.7,42.3,380.7,55.2z M358.6,55.9c0,10.5,3.2,16.5,8.2,16.5c5.6,0,8.3-6.5,8.3-16.9c0-10-2.6-16.5-8.2-16.5
		C362.1,39,358.6,44.8,358.6,55.9z"/>
	<path class="st1" d="M385.7,76v-3.4l4.3-4.2c10.4-9.9,15-15.1,15.1-21.2c0-4.1-2-7.9-8-7.9c-3.7,0-6.7,1.9-8.6,3.4l-1.7-3.9
		c2.8-2.4,6.8-4.1,11.5-4.1c8.7,0,12.4,6,12.4,11.8c0,7.5-5.4,13.5-14,21.8l-3.2,3v0.1h18.2V76H385.7z"/>
	<path class="st1" d="M444.7,55.2c0,13.8-5.1,21.4-14.1,21.4c-7.9,0-13.3-7.4-13.4-20.8c0-13.6,5.9-21.1,14.1-21.1
		C439.8,34.7,444.7,42.3,444.7,55.2z M422.6,55.9c0,10.5,3.2,16.5,8.2,16.5c5.6,0,8.3-6.5,8.3-16.9c0-10-2.6-16.5-8.2-16.5
		C426.1,39,422.6,44.8,422.6,55.9z"/>
</g>
<g>
	<g>
		<path class="st1" d="M1294.4,27.4c0,4.7,2.9,6.7,6.7,8.1l4.1,1.5c2.5,1,4,1.9,4,4.1c0,2.6-2.3,3.7-5.5,3.7c-3.3,0-6.4-1.2-9-3.3
			v5.1c2,1.4,5.2,2.5,9,2.5c5.8,0,10.2-2.9,10.2-8.1c0-4.1-2-6.6-6.5-8.3l-4.6-1.7c-2.4-0.8-3.7-1.7-3.7-3.8c0-2.3,2.1-3.4,5-3.4
			c3.3,0,5.9,1.3,8.3,3.1v-5c-2.3-1.5-5.2-2.3-8.4-2.3C1298.7,19.6,1294.4,22.4,1294.4,27.4"/>
		<path class="st1" d="M1439.1,27.4c0,4.7,2.9,6.7,6.7,8.1l4.1,1.5c2.5,1,4,1.9,4,4.1c0,2.6-2.3,3.7-5.5,3.7c-3.3,0-6.4-1.2-9-3.3
			v5.1c2,1.4,5.2,2.5,9,2.5c5.8,0,10.2-2.9,10.2-8.1c0-4.1-2-6.6-6.5-8.3l-4.6-1.7c-2.4-0.8-3.7-1.7-3.7-3.8c0-2.3,2.1-3.4,5-3.4
			c3.3,0,5.9,1.3,8.3,3.1v-5c-2.3-1.5-5.2-2.3-8.4-2.3C1443.5,19.6,1439.1,22.4,1439.1,27.4"/>
		<path class="st1" d="M1410,27.4c0,4.7,2.9,6.7,6.7,8.1l4.1,1.5c2.5,1,4,1.9,4,4.1c0,2.6-2.3,3.7-5.5,3.7c-3.3,0-6.4-1.2-9-3.3v5.1
			c2,1.4,5.2,2.5,9,2.5c5.8,0,10.2-2.9,10.2-8.1c0-4.1-2-6.6-6.5-8.3l-4.6-1.7c-2.4-0.8-3.7-1.7-3.7-3.8c0-2.3,2.1-3.4,5-3.4
			c3.3,0,5.9,1.3,8.3,3.1v-5c-2.3-1.5-5.2-2.3-8.4-2.3C1414.4,19.6,1410,22.4,1410,27.4"/>
		<polygon class="st1" points="1381.8,20.1 1381.8,48.6 1399,48.6 1399,44.3 1386.5,44.3 1386.5,35.5 1397.8,35.5 1397.8,31.2 
			1386.5,31.2 1386.5,24.4 1399,24.4 1399,20.1 		"/>
		<path class="st1" d="M1234.3,36.1h6.1c3.2,0,5,1.6,5,4.2c0,2.6-1.8,4.2-5,4.2h-6.1V36.1z M1234.3,24.3h5.2c3.3,0,5,1.2,5,3.8
			c0,2.7-1.8,3.9-5,3.9h-5.2V24.3z M1229.6,20.1v28.5h10.9c5.9,0,9.6-2.8,9.6-8.2c0-3-1.9-5.7-4.6-6.5c2.1-0.7,3.7-3,3.7-6
			c0-5.1-3.7-7.7-9.6-7.7H1229.6z"/>
		<rect x="1326.2" y="20.1" class="st1" width="4.8" height="28.5"/>
		<path class="st1" d="M1278.5,20.1v16.6c0,5.5-2.3,8-6.6,8c-4.3,0-6.6-2.6-6.6-8V20.1h-4.8v17.1c0,7.8,4.6,11.8,11.4,11.8
			c6.8,0,11.4-4,11.4-11.8V20.1H1278.5z"/>
		<polygon class="st1" points="1364.3,20.1 1364.3,38.3 1344.8,19.7 1344.8,48.6 1349.4,48.6 1349.4,30.1 1369,49 1369,20.1 		"/>
	</g>
	<g>
		<path class="st1" d="M1301.4,71.7c0,4.6,2.9,6.6,6.6,8l4.1,1.5c2.5,1,4,1.8,4,4c0,2.5-2.3,3.7-5.5,3.7c-3.3,0-6.4-1.2-9-3.2v5
			c2,1.4,5.2,2.5,9,2.5c5.7,0,10.1-2.8,10.1-7.9c0-4.1-2-6.5-6.4-8.1l-4.5-1.6c-2.3-0.8-3.7-1.6-3.7-3.7c0-2.3,2.1-3.4,5-3.4
			c3.3,0,5.9,1.2,8.2,3v-4.9c-2.3-1.5-5.2-2.3-8.3-2.3C1305.8,64.1,1301.4,66.8,1301.4,71.7"/>
		<rect x="1333.1" y="64.6" class="st1" width="4.8" height="28"/>
		<rect x="1246.8" y="64.6" class="st1" width="4.8" height="28"/>
		<path class="st1" d="M1356.7,68.8h5.9c5.9,0,9.1,3.8,9.1,9.8c0,6-3.2,9.8-9.1,9.8h-5.9V68.8z M1351.9,64.6v28h10.8
			c8.3,0,13.7-5.5,13.7-14c0-8.5-5.4-14-13.7-14H1351.9z"/>
		<polygon class="st1" points="1386.5,64.6 1386.5,92.6 1403.6,92.6 1403.6,88.4 1391.2,88.4 1391.2,79.7 1402.4,79.7 1402.4,75.5 
			1391.2,75.5 1391.2,68.8 1403.6,68.8 1403.6,64.6 		"/>
		<path class="st1" d="M1422.7,68.7h5.4c3.2,0,5,1.7,5,4.3c0,2.6-1.8,4.3-5,4.3h-5.4V68.7z M1417.9,64.6v28h4.8V81.2h3.4l9.8,11.4
			h5.4l-10.1-11.6c4.5-0.7,6.6-3.4,6.6-8.1c0-5.5-3.8-8.4-9.6-8.4H1417.9z"/>
		<polygon class="st1" points="1265.4,92.6 1270,92.6 1270,74.4 1289.3,93 1289.3,64.6 1284.8,64.6 1284.8,82.5 1265.4,64.1 		"/>
	</g>
</g>
<g id="HYyXvu_1_">
	<g>
		<path class="st1" d="M1879,61.5c-0.4,1.8-0.7,3.6-1.1,5.4c-0.5,2.7-1,5.5-1.5,8.2c-0.1,0.4-0.6,0.9-1,0.9c-3.5,0.1-6.9,0-10.6,0
			c-2.3-12.4-4.6-24.8-6.9-37.3c3.2,0,6.2,0,9.5,0c1.1,6.4,2.2,12.9,3.3,19.4c0.2-0.1,0.3-0.2,0.4-0.3c0.9-6,1.8-12.1,2.7-18.1
			c0.1-0.7,0.3-1.1,1.1-1.1c2.9,0,5.9,0,9,0c1,6.6,2,13.1,3,19.6c0.1,0,0.2,0,0.2,0c1.1-6.5,2.2-12.9,3.3-19.5c3.1,0,6.2,0,9.5,0
			c-0.5,2.9-1,5.7-1.5,8.5c-1.7,9.2-3.5,18.5-5.1,27.7c-0.2,0.9-0.5,1.1-1.3,1.1c-2.9,0-5.8-0.1-8.7,0c-0.9,0-1.2-0.3-1.4-1.2
			c-0.8-4.5-1.8-8.9-2.6-13.4C1879.1,61.5,1879,61.5,1879,61.5z"/>
		<path class="st1" d="M1767,76.1c-3,0-6.3,0.1-9.5-0.1c-0.5,0-1.3-0.8-1.4-1.3c-0.4-2.3-0.8-4.5-0.9-6.8c-0.1-3.6,0-7.2,0-10.8
			c0-2.7-0.3-3-3.3-3c0,7.3,0,14.6,0,21.9c-3.7,0-7.2,0-10.8,0c0-15.3,0-30.5,0-45.9c0.4,0,0.7-0.1,1.1-0.1c4.5,0,9.1-0.1,13.6,0
			c2.5,0,4.9,0.6,7.1,2.1c2,1.4,3,3.4,3.1,5.9c0,1.9,0,3.9,0,5.8c0,2.5-1,4.4-3.3,5.6c-0.9,0.5-1.9,0.9-3,1.4c1,0.4,1.8,0.7,2.7,1.1
			c2.5,1.1,3.7,3,3.7,5.7c0,3.5-0.1,6.9,0,10.4C1766.1,70.7,1766.6,73.3,1767,76.1z M1752,48.2c2.7,0.2,3.2-0.3,3.2-2.9
			c0-2.2,0-4.4,0-6.6c0-2.3-0.8-3-3.2-2.6C1752,40.1,1752,44.1,1752,48.2z"/>
		<path class="st1" d="M1707,38.7c2.3,0,4.4-0.1,6.6,0.1c0.6,0,1.1,0.8,1.8,1.2c3-2,6.5-2,10-0.8c3.3,1.1,4.6,3.1,4.6,6.6
			c0,8,0,16.1,0,24.1c0,4.1-2.3,6.6-6.5,6.6c-2.3,0-4.5-0.5-6.9-0.8c0,6,0,12.2,0,18.5c-3.3,0-6.5,0-9.7,0
			C1707,75.8,1707,57.4,1707,38.7z M1716.7,57.5c0,3.8,0,7.5,0,11.3c0,1.5,0.5,2.1,1.8,2.1c1.3,0,1.7-0.9,1.7-2c0-7.5,0-14.9,0-22.4
			c0-1.2-0.4-2.1-1.7-2.1c-1.2,0-1.7,0.6-1.7,2.1C1716.7,50.1,1716.7,53.8,1716.7,57.5z"/>
		<path class="st1" d="M1616.6,57.8c3.4,0,6.5,0,9.9,0c0,1.8,0,3.5,0,5.2c0,1.6,0,3.2,0,4.8c0,1.5,0.7,2.1,2.1,2.1
			c1.4,0,1.9-0.5,1.9-2c0-1.8,0.2-3.6-0.1-5.3c-0.1-1.1-0.5-2.3-1.3-3.1c-2.9-3.1-6-6-9-9c-2.5-2.4-4-5.1-3.6-8.7
			c0.1-1.2,0-2.5,0.1-3.8c0.1-3.8,1.8-6.2,5.3-7.4c4.1-1.3,8.3-1.4,12.5-0.4c3.9,1,5.8,3.3,6,7.3c0.1,2.4,0,4.8,0,7.2
			c0,0.2-0.1,0.5-0.1,0.8c-3.3,0-6.5,0-9.9,0c0-2.7,0-5.3,0-8c0-1.3-0.9-2-2-1.7c-0.5,0.2-1.2,0.8-1.2,1.3c-0.1,1.7-0.2,3.5,0.1,5.2
			c0.2,1.2,1,2.4,1.8,3.3c3,3.1,6.2,6.1,9.2,9.1c1.7,1.7,2.9,3.8,2.9,6.3c0,3,0.1,6-0.2,8.9c-0.4,3-2.4,4.9-5.3,5.7
			c-4.3,1.2-8.7,1.4-13.1,0.1c-4.2-1.3-6.2-3.9-6.2-8.3C1616.6,64.3,1616.6,61.2,1616.6,57.8z"/>
		<path class="st1" d="M1704.6,59.8c-4.5,0-8.8,0-13.3,0c0,1.7,0,3.4,0,5c0,1.3,0,2.6,0,3.9c0,1.5,0.6,2.1,1.8,2.1
			c1.4,0,1.6-0.9,1.6-2c0-2.3,0-4.6,0-7c3.3,0,6.5,0,9.8,0c0,2.9,0.2,5.7-0.1,8.5c-0.2,2.8-2.1,4.6-4.7,5.4
			c-4.4,1.3-8.8,1.4-13.2,0.1c-3.4-1.1-5.1-3.5-5.1-7.1c0-6.9,0.1-13.9,0-20.8c-0.2-6,2.8-8.1,7.3-8.9c3.5-0.6,7-0.6,10.4,0.4
			c3.9,1.1,5.4,3.2,5.4,7.3C1704.6,50.9,1704.6,55.3,1704.6,59.8z M1694.7,54.1c0-2.9,0-5.6,0-8.3c0-1-0.7-1.6-1.6-1.5
			c-0.7,0.1-1.7,0.8-1.7,1.3c-0.2,2.8-0.1,5.6-0.1,8.5C1692.5,54.1,1693.5,54.1,1694.7,54.1z"/>
		<path class="st1" d="M1679.1,59.8c-4.5,0-8.8,0-13.3,0c0,1.2,0,2.2,0,3.3c0,1.9,0,3.8,0,5.6c0,1.5,0.6,2.1,1.8,2
			c1.4,0,1.6-0.9,1.6-2.1c0-2.3,0-4.6,0-7c3.3,0,6.6,0,9.8,0c0,3,0.2,5.9-0.1,8.7c-0.2,2.5-2,4.2-4.3,5c-4.6,1.6-9.4,1.6-14,0.1
			c-3.2-1.1-4.7-3.4-4.8-7c-0.1-7.3-0.1-14.7,0-22c0-4,2-6.5,6.1-7.5c3.9-1,7.9-0.9,11.8,0.2c2.9,0.8,5.4,2.7,5.3,7.1
			C1679,50.8,1679.1,55.2,1679.1,59.8z M1669.3,54c0-2.6,0-5.2,0-7.7c0-1.2-0.3-2-1.6-2.1c-1.1-0.1-1.8,0.8-1.8,2.1
			c0,1.6,0,3.3,0,4.9C1665.8,54.5,1665.8,54.5,1669.3,54z"/>
		<path class="st1" d="M1856.7,59.8c-4.5,0-8.8,0-13.3,0c0,3.3-0.1,6.4,0.1,9.6c0,0.5,0.8,1.1,1.4,1.3c0.8,0.3,1.6,0,1.8-1
			c0.1-0.6,0.2-1.2,0.2-1.8c0-2,0-4,0-6.1c3.3,0,6.5,0,10,0c-0.1,3.1-0.1,6.1-0.5,9.1c-0.2,2.2-1.8,3.7-3.9,4.5
			c-4.9,1.8-9.8,1.8-14.7,0c-2.8-1-4.3-3.3-4.3-6.4c0-7.5,0-15,0-22.6c0-3.7,1.7-6.1,5.3-7.2c4.3-1.2,8.6-1.2,12.8,0
			c3.2,0.9,5,3,5.1,6.4C1856.8,50.4,1856.7,55,1856.7,59.8z M1843.4,54.1c3.4,0.4,3.4,0.4,3.4-2.8c0-1,0-1.9,0-2.9
			c0-0.8,0.1-1.6,0-2.4c-0.1-1-0.7-1.7-1.8-1.7c-1.1,0.1-1.6,0.7-1.6,1.8C1843.4,48.7,1843.4,51.3,1843.4,54.1z"/>
		<path class="st1" d="M1792.5,59.8c-4.5,0-8.8,0-13.3,0c0,3.3-0.1,6.5,0,9.7c0,1,0.9,1.4,1.9,1.3c1.1-0.1,1.5-0.9,1.5-1.8
			c0-2.1,0-4.2,0-6.4c0-0.2,0-0.5,0-0.8c3.2,0,6.4,0,9.7,0c0,2.9,0.2,5.8-0.1,8.7c-0.2,2.7-2.2,4.4-4.7,5.1
			c-4.3,1.3-8.7,1.4-13.1,0.1c-3.6-1.1-5.2-3.5-5.2-7.2c0-7.3,0-14.7,0-22c0-3.8,1.7-6.2,5.4-7.3c4.2-1.2,8.5-1.2,12.7,0
			c3.5,1,5.1,3.4,5.1,7.1c0,4,0,7.9,0,11.9C1792.5,58.7,1792.5,59.2,1792.5,59.8z M1782.6,54.1c0-2.8,0-5.5,0-8.2
			c0-1-0.6-1.6-1.7-1.6c-1,0-1.7,0.5-1.7,1.5c-0.1,2.7,0,5.5,0,8.3C1780.4,54.1,1781.4,54.1,1782.6,54.1z"/>
		<path class="st1" d="M1813,76c-4,0-8,0-12,0c-2.4-12.4-4.8-24.7-7.2-37.1c3.4,0,6.6,0,9.9,0c1.1,7.1,2.2,14.1,3.3,21.2
			c0.1,0,0.2,0,0.3,0c1.1-7.1,2.2-14.1,3.3-21.2c3.2,0,6.4,0,9.7,0C1817.8,51.2,1815.4,63.6,1813,76z"/>
		<path class="st1" d="M1643.9,30.1c3.3,0,6.4,0,9.7,0c0,15.3,0,30.5,0,45.9c-3.2,0-6.4,0-9.7,0
			C1643.9,60.7,1643.9,45.5,1643.9,30.1z"/>
		<path class="st1" d="M1831.5,38.8c0,12.4,0,24.7,0,37.1c-3.3,0-6.5,0-9.7,0c0-12.4,0-24.7,0-37.1
			C1825,38.8,1828.2,38.8,1831.5,38.8z"/>
		<path class="st1" d="M1831.5,30.1c0,2.1,0,4.2,0,6.4c-3.2,0-6.4,0-9.7,0c0-2.1,0-4.2,0-6.4C1825,30.1,1828.2,30.1,1831.5,30.1z"/>
	</g>
</g>
<g>
	<path class="st1" d="M2107.9,41.6c-2,0-3.8,0.5-5.3,1.5c-1.7-5.9-6.9-9.3-14.7-9.3h-12.4v4.3h12.7c6.5,0,10.3,3.5,10.3,9.7
		s-3.8,9.7-10.3,9.7h-0.1l0.7-1.1c1.6-2.4,3-4.7,3-6.9c0-4.5-2.9-7.9-8.5-7.9c-4.9,0-8.5,3.7-8.5,8.1h4.6c0-2.2,1.4-3.8,3.9-3.8
		c2.6,0,3.9,1.5,3.9,3.8c0,1.7-1.1,3.4-2.3,5.2l-1.8,2.7h-7.6v4.3h4.6l-8.1,11.9h19.4v-4.3H2080l5.2-7.6h2.7c0.4,0,0.9,0,1.3,0
		l13.6,17.7h5.8l-4.5-5.8l8.5-12.4c2.2-3.1,4.8-6.4,4.8-10.3C2117.4,45.8,2113.5,41.6,2107.9,41.6z M2101.3,69.9l-7-9.1
		c2.6-0.8,4.6-2.2,6.2-4.1c1.7,2.1,4.3,3.5,7.5,3.5h0.2L2101.3,69.9z M2107.9,56c-2.9,0-4.9-2.2-4.9-5.1c0-0.2,0-0.4,0-0.7v-0.1
		c0.3-2.4,2.2-4.2,4.8-4.2c2.9,0,4.9,2.2,4.9,5.1C2112.7,53.8,2110.8,56,2107.9,56z"/>
	<path class="st1" d="M2093.3,19.4c-20,0-36.3,16.3-36.3,36.3s16.3,36.3,36.3,36.3c20,0,36.3-16.3,36.3-36.4
		C2129.6,35.6,2113.3,19.4,2093.3,19.4L2093.3,19.4z M2093.3,87.7c-17.7,0-32-14.4-32-32s14.4-32,32-32s32,14.4,32,32
		C2125.3,73.4,2111,87.7,2093.3,87.7z M2173,55.5c1.8-1.6,2.9-4,2.9-6.6s-1.1-4.9-2.9-6.6c-1.6-1.5-3.7-2.4-7-2.4h-11.7v32.2h6.2
		V57.9h2.2l11.5,14.2h7.7l-12.1-14.8C2171,57,2172.1,56.3,2173,55.5z M2168.8,51.4c-0.5,0.6-1.3,1-3.1,1h-5.2v-6.9h5.2
		c1.8,0,2.6,0.4,3.1,1C2170,47.9,2170,49.9,2168.8,51.4z M2192.3,57.6h9.9v-5.5h-9.9v-6.6h13.1v-5.5h-19.3v32.2h19.8v-5.5h-13.6
		V57.6z M2214,72.1h6.2V57.6h9.9v-5.5h-9.9v-6.6h13.1v-5.5H2214V72.1z M2239.9,39.9h6.2v32.2h-6.2V39.9z M2277.3,60.9l-18-21h-4.4
		v32.2h6.2v-21l18,21h4.4V39.9h-6.2V60.9z M2299.2,57.6h9.9v-5.5h-9.9v-6.6h13.1v-5.5H2293v32.2h19.8v-5.5h-13.6V57.6z M2339.6,55.5
		c1.8-1.6,2.9-4,2.9-6.6s-1.1-4.9-2.9-6.6c-1.6-1.5-3.7-2.4-7-2.4h-11.7v32.2h6.2V57.9h2.2l11.4,14.2h7.7l-12.1-14.8
		C2337.6,56.9,2338.7,56.3,2339.6,55.5z M2335.3,51.4c-0.5,0.6-1.3,1-3.1,1h-5.2v-6.9h5.2c1.8,0,2.6,0.4,3.1,1
		c0.6,0.7,0.9,1.6,0.9,2.5C2336.3,49.8,2335.9,50.7,2335.3,51.4z M2361.4,51.2l-7.1-11.3h-7.1l11.1,17.6v14.6h6.2V57.5l11-17.6h-7.1
		L2361.4,51.2z M2396.8,58.3c2.2-2.9,3.5-5.4,3.5-9.4c0-5.9-5-10.2-10.5-10.2h-0.2c-5.5,0-10.2,4.1-10.5,10h6.2
		c0.1-2.4,2-4.3,4.4-4.4c2.4,0.1,4.4,2,4.4,4.4c0,1.7-0.2,3.5-2.5,6.4l-13.8,16.9h23.8v-5.6H2390L2396.8,58.3z M2417.6,38.8
		c-6.3,0-11.4,5.2-11.4,11.5c-0.1,6.2,4.8,11.2,11,11.3c0.1,0,0.2,0,0.3,0h0.4l-6.1,10.5h6.9l7.6-13c1.7-2.9,3.2-5.8,3.2-9
		C2429.4,43.1,2423.6,38.8,2417.6,38.8z M2417.7,56.1c-3.2,0-5.8-2.6-5.8-5.8c0-3.2,2.6-5.8,5.8-5.8s5.8,2.6,5.8,5.8
		S2420.9,56.1,2417.7,56.1z"/>
</g>
<g>
	<path class="st1" d="M1018.1,0.1c-30.6-0.3-55.4,24.4-55.5,54.6c-0.1,30.4,24.4,54.9,54.4,55.2c30.4,0.3,55.4-24.3,55.4-54.9
		C1072.5,24.6,1047.9,0.4,1018.1,0.1z M999,71.7c0,0.2,0,0.3,0,0.5c-2.7,0-5.3,0-8,0c0-0.9,0-1.8,0-2.7c-0.1,0.1-0.3,0.1-0.3,0.1
		c-1.9,1.1-3.9,1.8-6,2.1c-1.6,0.2-3.1,0.3-4.7,0.1c-3.4-0.4-6.5-1.8-9.1-4.1c-2.9-2.5-4.7-5.6-5.4-9.4c-1.1-5.6,0.3-10.6,4.1-14.8
		c2.6-2.9,5.9-4.6,9.7-5.3c9.4-1.5,17.8,4.8,19.4,13.5c0.2,1,0.3,2,0.3,2.9C999,60.4,999,66.1,999,71.7z M1022.2,72.2
		c-5.9,1.5-11.3,0.2-15.9-3.8c-3.1-2.8-4.9-6.3-5.5-10.4c-0.1-0.9-0.2-1.7-0.2-2.6c0-8.2,0-16.5,0-24.7c0-0.2,0-0.3,0-0.6
		c2.7,0,5.2,0,7.9,0c0,3.6,0,7.2,0,10.9c0.1,0,0.2-0.1,0.3-0.1c2.1-1.4,4.4-2.2,6.9-2.4c4.8-0.5,9.1,0.6,12.8,3.6
		c3.6,2.9,5.8,6.6,6.4,11.2C1036,61.9,1030.7,70,1022.2,72.2z M1053,72.6c-9.2-0.1-16.3-7.4-16.5-16.3c-0.2-8.9,6.7-16.5,15.8-17
		c9.5-0.5,16.3,6.6,17.3,14.2c-2.5,0-4.9,0-7.3,0c-1.4-5.1-6.3-7.7-10.9-6.9c-4.4,0.8-7.7,4.5-7.8,9c-0.1,4.4,2.8,8.4,7.1,9.5
		c4.5,1.2,9.2-1.1,11.2-5.8c2.5,0,5,0,7.5,0C1068.4,65.4,1062.5,72.7,1053,72.6z"/>
	<path class="st1" d="M1018.3,46.1c-5.3-0.1-9.7,4.1-9.7,9.4c0,5.1,4.1,9.5,9.4,9.5c5.2,0,9.4-4.2,9.5-9.4
		C1027.6,50.5,1023.5,46.2,1018.3,46.1z"/>
	<path class="st1" d="M982.1,45.8c-5.3,0-9.3,4.2-9.3,9.2c0,5.3,4.3,9.4,9.3,9.3c5,0.1,9.3-4,9.3-9.2
		C991.4,50.1,987.4,45.8,982.1,45.8z"/>
</g>
<g>
	<g class="st4">
		<path class="st5" d="M666.3,26.8c6.5,0,12.2-4.9,13.1-11c1,6.2,6.4,11,12.9,11c7.1,0,12.9-5.7,13.1-12.7c0.2,7.1,6,12.7,13.1,12.7
			c7.2,0,13.1-5.9,13.1-13.1c0-7.3-5.9-13.2-13.1-13.2c-7.1,0-12.9,5.7-13.1,12.9c-0.2-7.1-6-12.9-13.1-12.9
			c-6.4,0-11.8,4.7-12.9,10.9h-13.9v6.5h5.1c-1.1,1.4-2.5,1.7-4.3,1.7c-5.4,0-5.8-4.5-5.8-5.9c0-1.4,0.4-6.1,5.6-6.1
			c2.2,0,4,0.8,4.9,2.1l0.4,0.6h7.6l-0.6-1.8c-1.4-3.9-6.1-8-12.2-8c-7.4,0-13.3,5.9-13.3,13.2C652.9,20.9,658.9,26.8,666.3,26.8z
			 M692.4,19.6c-3.1,0-5.7-2.7-5.7-5.9c0-3.3,2.6-6,5.7-6c3.1,0,5.7,2.7,5.7,6C698.1,16.9,695.5,19.6,692.4,19.6z M718.6,7.6
			c3.1,0,5.7,2.7,5.7,6c0,3.3-2.6,5.9-5.7,5.9c-3.1,0-5.7-2.7-5.7-5.9C712.9,10.3,715.4,7.6,718.6,7.6z"/>
		<path class="st5" d="M747.5,24.7c4-2,6.5-6.4,6.5-11c0-3.8-1.8-7.6-4.5-9.8c-1.6-1.3-4.4-3-10.9-3h-6.9v25.4h7
			C742.5,26.3,745.5,25.7,747.5,24.7z M739.1,19.7V7.5c2.3,0,4.1,0.4,5.6,1.6c1.3,1.1,2.1,2.8,2.1,4.5c0,2.2-1.1,4.2-2.9,5.1
			C742.4,19.5,741.2,19.6,739.1,19.7z"/>
		<path class="st5" d="M634.4,43.5l3.6,9.2h5.5l3.6-9.3v9.3h7.6v-9.1c1.5,5.5,6.6,9.6,12.7,9.6c7.3,0,13.2-5.8,13.2-12.9
			c0-7.2-5.9-13-13.2-13c-6.1,0-11.2,4.1-12.7,9.6v-9.2h-9.5L640.7,40l-4.4-12.2h-9.5v25h7.6V43.5z M667.3,34.5
			c3.1,0,5.6,2.6,5.6,5.7c0,3.1-2.5,5.7-5.6,5.7c-3.1,0-5.6-2.5-5.6-5.7C661.7,37.1,664.2,34.5,667.3,34.5z"/>
		<rect x="724.1" y="27.7" class="st5" width="6.9" height="25"/>
		<path class="st5" d="M700.8,52.7h7.1V41.2l7.4,11.5h7.5v-25h-7.6v11.4l-7.3-11.4h-7.4v24.5l-6.3-8.4c0.7-0.3,1.6-0.8,2.5-1.6
			c1.9-1.8,2.6-4.5,2.6-6.3c0-3.4-2-5.5-3.2-6.4c-1.6-1.3-3.5-1.8-6.4-1.8h-9v25h7.6v-5.7l4,5.7h8.2H700.8z M688.4,34.3h1.3
			c2.4,0,2.7,1.4,2.7,2c0,1-0.5,2.1-2.7,2.1h-1.3V34.3z"/>
		<path class="st5" d="M746.8,27.7v11.4l-7.3-11.4h-7.4v25h7.4V41.2l7.4,11.5h7.5v-8.1c1.9,4.8,6.8,8.2,12.5,8.2
			c7.2,0,13.2-5.7,13.2-12.5v-2.5h-14v6.3h5c-1,1.3-2.5,1.6-4.2,1.6c-5.4,0-5.8-4.4-5.8-5.7c0-1.4,0.4-5.9,5.6-5.9
			c2.2,0,4,0.8,4.9,2l0.4,0.6h7.6l-0.7-1.8c-1.4-3.8-6.1-7.8-12.1-7.8c-5.6,0-10.4,3.4-12.4,8.2v-7.6H746.8z"/>
		<path class="st5" d="M616.4,83.3h9.5l2.1,5.2h9.8h0.9h8.4V74.2l5.2,14.4h6.9l5.2-14.5v14.5h9.3V55.6h-11.9l-6.1,17.2l-6.2-17.2
			h-11.9v30.7l-12.2-30.7h-8.4l-13.7,32.9h10.8L616.4,83.3z M618.7,76l2.4-7.2l2.4,7.2H618.7z"/>
		<polygon class="st5" points="697,63.5 697,55.6 676.5,55.6 676.5,88.6 697,88.6 697,80 686.1,80 686.1,75.5 696.5,75.5 
			696.5,67.7 686.1,67.7 686.1,63.5 		"/>
		<path class="st5" d="M709.4,79.8l5.9,8.7h11.2l-8.4-11.1c1.1-0.4,2.1-1,3.5-2.2c2.9-2.5,3.6-6.9,3.6-8.9c0-4.4-2.8-7.6-4.4-8.9
			c-2.3-1.7-5.1-1.8-8.9-1.8h-11.9v32.9h9.3V79.8z M709.4,63.5h2.5c4.2,0,4.5,2.5,4.5,3.3c0,1.2-0.6,3.3-4.5,3.3h-2.5V63.5z"/>
		<rect x="728.7" y="55.6" class="st5" width="8.9" height="32.9"/>
		<path class="st5" d="M774.5,75.1L774.5,75.1l-10.4-0.1l-0.2,0.4c0,0.1-0.5,1.1-1.3,2.2c-1.4,1.3-3.3,2-5.2,2
			c-4.3,0-7.8-3.4-7.8-7.6c0-4.2,3.5-7.6,7.8-7.6c1,0,2,0.2,3,0.6c2.3,1.2,3.5,3.5,3.5,3.5l0.2,0.4h10.1l0.2-0.2h0.4l-0.1-0.6
			c0.1-0.5,0.1-1.1,0-1.3c-0.3-1-3-7.7-9.9-10.6c-2.2-1-4.7-1.6-7.3-1.6c-2.9,0-5.6,0.7-8,1.9c-6.4,2.5-10.2,8-10.2,15.4
			c0,6.5,3.4,11.8,8.8,14.7c2.7,1.7,5.9,2.7,9.4,2.7c6.1,0,11.5-3,14.7-7.6l-2.8,6.8h10.8l2.1-5.2h9.5l2.1,5.2h10.7l-13.1-32.9h-8.4
			l-8.1,19.5H774.5z M784.3,76l2.4-7.2l2.4,7.2H784.3z"/>
		<path class="st5" d="M803.7,102.2c-33-6-66.1-9-98.4-9c-61.2,0-99.4,10.9-99.8,11.1l0.3,1.3c25.9-4,52.6-6,79.5-6
			c57.7,0,96.7,9.3,98.2,10.1l0.5,0.3l0.4-0.4c1.4-1.4,12.6-5.1,19.4-6l4.3-0.6L803.7,102.2z"/>
	</g>
	<g class="st6">
		<path class="st5" d="M666.3,26.8c6.5,0,12.2-4.9,13.1-11c1,6.2,6.4,11,12.9,11c7.1,0,12.9-5.7,13.1-12.7c0.2,7.1,6,12.7,13.1,12.7
			c7.2,0,13.1-5.9,13.1-13.1c0-7.3-5.9-13.2-13.1-13.2c-7.1,0-12.9,5.7-13.1,12.9c-0.2-7.1-6-12.9-13.1-12.9
			c-6.4,0-11.8,4.7-12.9,10.9h-13.9v6.5h5.1c-1.1,1.4-2.5,1.7-4.3,1.7c-5.4,0-5.8-4.5-5.8-5.9c0-1.4,0.4-6.1,5.6-6.1
			c2.2,0,4,0.8,4.9,2.1l0.4,0.6h7.6l-0.6-1.8c-1.4-3.9-6.1-8-12.2-8c-7.4,0-13.3,5.9-13.3,13.2C652.9,20.9,658.9,26.8,666.3,26.8z
			 M692.4,19.6c-3.1,0-5.7-2.7-5.7-5.9c0-3.3,2.6-6,5.7-6c3.1,0,5.7,2.7,5.7,6C698.1,16.9,695.5,19.6,692.4,19.6z M718.6,7.6
			c3.1,0,5.7,2.7,5.7,6c0,3.3-2.6,5.9-5.7,5.9c-3.1,0-5.7-2.7-5.7-5.9C712.9,10.3,715.4,7.6,718.6,7.6z"/>
		<path class="st5" d="M747.5,24.7c4-2,6.5-6.4,6.5-11c0-3.8-1.8-7.6-4.5-9.8c-1.6-1.3-4.4-3-10.9-3h-6.9v25.4h7
			C742.5,26.3,745.5,25.7,747.5,24.7z M739.1,19.7V7.5c2.3,0,4.1,0.4,5.6,1.6c1.3,1.1,2.1,2.8,2.1,4.5c0,2.2-1.1,4.2-2.9,5.1
			C742.4,19.5,741.2,19.6,739.1,19.7z"/>
		<path class="st5" d="M634.4,43.5l3.6,9.2h5.5l3.6-9.3v9.3h7.6v-9.1c1.5,5.5,6.6,9.6,12.7,9.6c7.3,0,13.2-5.8,13.2-12.9
			c0-7.2-5.9-13-13.2-13c-6.1,0-11.2,4.1-12.7,9.6v-9.2h-9.5L640.7,40l-4.4-12.2h-9.5v25h7.6V43.5z M667.3,34.5
			c3.1,0,5.6,2.6,5.6,5.7c0,3.1-2.5,5.7-5.6,5.7c-3.1,0-5.6-2.5-5.6-5.7C661.7,37.1,664.2,34.5,667.3,34.5z"/>
		<rect x="724.1" y="27.7" class="st5" width="6.9" height="25"/>
		<path class="st5" d="M700.8,52.7h7.1V41.2l7.4,11.5h7.5v-25h-7.6v11.4l-7.3-11.4h-7.4v24.5l-6.3-8.4c0.7-0.3,1.6-0.8,2.5-1.6
			c1.9-1.8,2.6-4.5,2.6-6.3c0-3.4-2-5.5-3.2-6.4c-1.6-1.3-3.5-1.8-6.4-1.8h-9v25h7.6v-5.7l4,5.7h8.2H700.8z M688.4,34.3h1.3
			c2.4,0,2.7,1.4,2.7,2c0,1-0.5,2.1-2.7,2.1h-1.3V34.3z"/>
		<path class="st5" d="M746.8,27.7v11.4l-7.3-11.4h-7.4v25h7.4V41.2l7.4,11.5h7.5v-8.1c1.9,4.8,6.8,8.2,12.5,8.2
			c7.2,0,13.2-5.7,13.2-12.5v-2.5h-14v6.3h5c-1,1.3-2.5,1.6-4.2,1.6c-5.4,0-5.8-4.4-5.8-5.7c0-1.4,0.4-5.9,5.6-5.9
			c2.2,0,4,0.8,4.9,2l0.4,0.6h7.6l-0.7-1.8c-1.4-3.8-6.1-7.8-12.1-7.8c-5.6,0-10.4,3.4-12.4,8.2v-7.6H746.8z"/>
		<path class="st5" d="M616.4,83.3h9.5l2.1,5.2h9.8h0.9h8.4V74.2l5.2,14.4h6.9l5.2-14.5v14.5h9.3V55.6h-11.9l-6.1,17.2l-6.2-17.2
			h-11.9v30.7l-12.2-30.7h-8.4l-13.7,32.9h10.8L616.4,83.3z M618.7,76l2.4-7.2l2.4,7.2H618.7z"/>
		<polygon class="st5" points="697,63.5 697,55.6 676.5,55.6 676.5,88.6 697,88.6 697,80 686.1,80 686.1,75.5 696.5,75.5 
			696.5,67.7 686.1,67.7 686.1,63.5 		"/>
		<path class="st5" d="M709.4,79.8l5.9,8.7h11.2l-8.4-11.1c1.1-0.4,2.1-1,3.5-2.2c2.9-2.5,3.6-6.9,3.6-8.9c0-4.4-2.8-7.6-4.4-8.9
			c-2.3-1.7-5.1-1.8-8.9-1.8h-11.9v32.9h9.3V79.8z M709.4,63.5h2.5c4.2,0,4.5,2.5,4.5,3.3c0,1.2-0.6,3.3-4.5,3.3h-2.5V63.5z"/>
		<rect x="728.7" y="55.6" class="st5" width="8.9" height="32.9"/>
		<path class="st5" d="M774.5,75.1L774.5,75.1l-10.4-0.1l-0.2,0.4c0,0.1-0.5,1.1-1.3,2.2c-1.4,1.3-3.3,2-5.2,2
			c-4.3,0-7.8-3.4-7.8-7.6c0-4.2,3.5-7.6,7.8-7.6c1,0,2,0.2,3,0.6c2.3,1.2,3.5,3.5,3.5,3.5l0.2,0.4h10.1l0.2-0.2h0.4l-0.1-0.6
			c0.1-0.5,0.1-1.1,0-1.3c-0.3-1-3-7.7-9.9-10.6c-2.2-1-4.7-1.6-7.3-1.6c-2.9,0-5.6,0.7-8,1.9c-6.4,2.5-10.2,8-10.2,15.4
			c0,6.5,3.4,11.8,8.8,14.7c2.7,1.7,5.9,2.7,9.4,2.7c6.1,0,11.5-3,14.7-7.6l-2.8,6.8h10.8l2.1-5.2h9.5l2.1,5.2h10.7l-13.1-32.9h-8.4
			l-8.1,19.5H774.5z M784.3,76l2.4-7.2l2.4,7.2H784.3z"/>
		<path class="st5" d="M803.7,102.2c-33-6-66.1-9-98.4-9c-61.2,0-99.4,10.9-99.8,11.1l0.3,1.3c25.9-4,52.6-6,79.5-6
			c57.7,0,96.7,9.3,98.2,10.1l0.5,0.3l0.4-0.4c1.4-1.4,12.6-5.1,19.4-6l4.3-0.6L803.7,102.2z"/>
	</g>
	<g>
		<g>
			<path class="st1" d="M665.3,25.2c7,0,12.9-5.7,12.9-12.4v-1.9h-13v5.2h5.7c-1.3,2.7-3.4,3.2-5.6,3.2c-5.1,0-6.7-3.7-6.7-6.7
				c0-3.1,1.5-6.9,6.5-6.9c2.7,0,4.7,1.1,5.6,2.5l0.2,0.3h6.4L677,7.5c-1.3-3.7-5.9-7.7-11.8-7.7c-7.1,0-13,5.7-13,12.7
				C652.3,19.5,658.1,25.2,665.3,25.2z"/>
			<path class="st1" d="M768.5,52.4c7,0,12.8-5.5,12.8-12v-1.8h-12.9v5h5.7c-1.3,2.6-3.4,3.1-5.6,3.1c-5.1,0-6.7-3.6-6.7-6.5
				c0-3,1.5-6.7,6.5-6.7c2.7,0,4.7,1,5.6,2.4l0.2,0.3h6.4l-0.3-0.9c-1.3-3.6-5.9-7.5-11.8-7.5c-7.1,0-12.9,5.5-12.9,12.3
				C755.5,46.8,761.3,52.4,768.5,52.4z"/>
			<path class="st1" d="M692.1,25.2c7,0,12.7-5.7,12.7-12.6c0-7-5.7-12.7-12.7-12.7c-7,0-12.7,5.7-12.7,12.7
				C679.3,19.6,685,25.2,692.1,25.2z M692.1,5.8c3.6,0,6.6,3,6.6,6.8c0,3.7-2.9,6.7-6.6,6.7c-3.6,0-6.6-3-6.6-6.7
				C685.5,8.8,688.5,5.8,692.1,5.8z"/>
			<path class="st1" d="M719,25.2c7,0,12.7-5.7,12.7-12.6c0-7-5.7-12.7-12.7-12.7c-7,0-12.7,5.7-12.7,12.7
				C706.2,19.6,711.9,25.2,719,25.2z M718.9,5.8c3.6,0,6.6,3,6.6,6.8c0,3.7-2.9,6.7-6.6,6.7s-6.6-3-6.6-6.7
				C712.4,8.8,715.3,5.8,718.9,5.8z"/>
			<path class="st1" d="M748.3,23.2c3.8-1.9,6.3-6.1,6.3-10.6c0-3.6-1.7-7.3-4.4-9.4c-1.5-1.2-4.3-2.8-10.7-2.8h-6.4v24.4h6.5
				C743.4,24.7,746.3,24.2,748.3,23.2z M739.5,5.7c2.8,0,5,0.3,6.7,1.8c1.5,1.2,2.4,3.2,2.4,5.2c0,2.5-1.3,4.7-3.3,5.8
				c-1.8,0.9-3.3,1-5.7,1h-0.2V5.7H739.5z"/>
			<polygon class="st1" points="646.2,39.8 646.2,52.3 652.6,52.3 652.6,28.3 644.1,28.3 639.1,42.2 634.1,28.3 625.5,28.3 
				625.5,52.3 631.9,52.3 631.9,39.8 636.7,52.3 641.4,52.3 			"/>
			<path class="st1" d="M666.4,27.9c-7.1,0-12.8,5.6-12.8,12.5c0,6.8,5.8,12.4,12.8,12.4c7.1,0,12.8-5.6,12.8-12.4
				C679.2,33.5,673.5,27.9,666.4,27.9z M666.4,46.8c-3.6,0-6.5-2.9-6.5-6.5c0-3.6,2.9-6.5,6.5-6.5c3.6,0,6.5,2.9,6.5,6.5
				C672.8,43.9,669.9,46.8,666.4,46.8z"/>
			<path class="st1" d="M696,41.9c1.8-1.7,2.4-4.2,2.4-5.9c0-3.2-1.9-5.1-3-6c-1.5-1.2-3.3-1.7-6.1-1.7h-8.5v24h6.4V45l5.2,7.3h6.9
				l-6.5-8.6C693.8,43.4,694.9,43,696,41.9z M687.2,33.6h2.1c3.3,0,3.5,2.3,3.5,2.8c0,0.8-0.3,2.8-3.5,2.8h-2.1V33.6z"/>
			<rect x="725.3" y="28.3" class="st1" width="5.7" height="24"/>
			<polygon class="st1" points="707.3,38.9 716,52.3 722.6,52.3 722.6,28.3 716.2,28.3 716.2,41.7 707.6,28.3 701.1,28.3 
				701.1,52.3 707.3,52.3 			"/>
			<polygon class="st1" points="739.7,38.9 748.4,52.3 755,52.3 755,28.3 748.6,28.3 748.6,41.7 740.1,28.3 733.6,28.3 733.6,52.3 
				739.7,52.3 			"/>
			<path class="st1" d="M785.4,56l-13.5,32.1h9.5l2.1-5.3h10.7l2.1,5.3h9.5L793,56H785.4z M792.3,76.7h-6.8l3.4-10.3L792.3,76.7z"/>
			<path class="st1" d="M615.4,56L602,88.1h9.5l2.1-5.3h10.7l2.1,5.3h9.5L623.1,56H615.4z M622.3,76.7h-6.8l3.4-10.3L622.3,76.7z"/>
			<polygon class="st1" points="654.6,74.9 647.7,56 636.8,56 636.8,88.1 644.9,88.1 644.9,70.1 651.5,88.1 657.6,88.1 664.2,70 
				664.2,88.1 672.3,88.1 672.3,56 661.3,56 			"/>
			<polygon class="st1" points="676.5,88.1 696.1,88.1 696.1,80.7 684.9,80.7 684.9,74.8 695.6,74.8 695.6,68.2 684.9,68.2 
				684.9,62.6 696.1,62.6 696.1,56 676.5,56 			"/>
			<path class="st1" d="M721.7,74.7c2.6-2.2,3.5-6.3,3.5-8.5c0-4.2-2.7-7.3-4.2-8.5c-2.1-1.6-4.7-1.7-8.7-1.7h-11.5v32.1h8.1V77.6
				l7.2,10.5h9.7l-8.4-11C718.9,76.7,720,76.2,721.7,74.7z M708.9,62.6h3.3c5.1,0,5.3,3.3,5.3,4c0,1.2-0.5,4.1-5.3,4.1h-3.3V62.6z"
				/>
			<rect x="730.1" y="56" class="st1" width="7.7" height="32.1"/>
			<path class="st1" d="M775.6,75.7h-9.5c0,0-2.1,5.2-7.1,5.2c-5,0-9.7-3.6-9.7-8.9c0-6,4.8-8.7,9.4-8.7s7.2,4.7,7.2,4.7h9.6
				c0.1-0.1,0.2-0.9,0.1-1.2c-1.1-3.1-5.8-11.5-16.1-11.5c-12.5,0-18.8,7.6-18.8,16.5c0,9.3,7.5,16.8,18.8,16.8
				c11.1,0,15.9-11.3,16-11.8C775.7,76.4,775.6,75.7,775.6,75.7z"/>
		</g>
		<g>
			<path class="st1" d="M758.7,80.4c-4.8,0-8.7-3.8-8.7-8.5c0-4.7,3.9-8.5,8.7-8.5c3.3,0,6.1,1.8,7.6,4.4h9.3
				c-1.9-7.4-8.7-12.9-16.9-12.9c-9.6,0-17.4,7.6-17.4,16.9s7.8,16.9,17.4,16.9c8.3,0,15.2-5.6,17-13.1h-9.2
				C765,78.6,762.1,80.4,758.7,80.4z"/>
		</g>
		<path class="st1" d="M603.1,105.4c0,0,82.1-23.8,203-2.1c-6.8,0.9-18.6,4.7-20.3,6.3C783.3,108.2,703.4,90,603.1,105.4z"/>
	</g>
</g>
</svg>
