<svg xmlns="http://www.w3.org/2000/svg" width="32" height="32" viewBox="0 0 32 32">
  <defs>
    <style>
      .cls-1 {
        fill: none;
      }

      .cls-2 {
        fill: #5073c7;
      }
    </style>
  </defs>
  <g id="Group_233" data-name="Group 233" transform="translate(-928 -320)">
    <rect id="Rectangle_331" data-name="Rectangle 331" class="cls-1" width="32" height="32" transform="translate(928 320)"/>
    <path id="Path_910" data-name="Path 910" class="cls-2" d="M948.005,329.5c-3.121,0-4.752-1.629-6.062-2.939-1.2-1.2-2.061-2.061-3.941-2.061s-2.744.864-3.94,2.061c-1.31,1.309-2.94,2.939-6.062,2.939v-3c1.879,0,2.744-.864,3.94-2.061,1.31-1.309,2.94-2.939,6.062-2.939s4.753,1.63,6.062,2.939c1.2,1.2,2.062,2.061,3.941,2.061s2.74-.864,3.936-2.06c1.309-1.31,2.938-2.94,6.059-2.94v3c-1.878,0-2.741.864-3.938,2.061C952.754,327.87,951.125,329.5,948.005,329.5Z"/>
    <path id="Path_911" data-name="Path 911" class="cls-2" d="M948.005,339.5c-3.121,0-4.752-1.629-6.062-2.939-1.2-1.2-2.061-2.061-3.941-2.061s-2.744.864-3.94,2.061c-1.31,1.309-2.94,2.939-6.062,2.939v-3c1.879,0,2.744-.864,3.94-2.061,1.31-1.309,2.94-2.939,6.062-2.939s4.753,1.63,6.062,2.939c1.2,1.2,2.062,2.061,3.941,2.061s2.74-.864,3.936-2.06c1.309-1.31,2.938-2.94,6.059-2.94v3c-1.878,0-2.741.864-3.938,2.061C952.754,337.87,951.125,339.5,948.005,339.5Z"/>
    <path id="Path_912" data-name="Path 912" class="cls-2" d="M948.005,349.5c-3.121,0-4.752-1.629-6.062-2.939-1.2-1.2-2.061-2.061-3.941-2.061s-2.744.864-3.94,2.061c-1.31,1.309-2.94,2.939-6.062,2.939v-3c1.879,0,2.744-.864,3.94-2.061,1.31-1.309,2.94-2.939,6.062-2.939s4.753,1.63,6.062,2.939c1.2,1.2,2.062,2.061,3.941,2.061s2.74-.864,3.936-2.06c1.309-1.31,2.938-2.94,6.059-2.94v3c-1.878,0-2.741.864-3.938,2.061C952.754,347.87,951.125,349.5,948.005,349.5Z"/>
  </g>
</svg>
