<svg xmlns="http://www.w3.org/2000/svg" width="24" height="24" viewBox="0 0 24 24">
  <path id="Path_927" data-name="Path 927" d="M1144,329a9,9,0,0,0-17.612-2.612,9,9,0,1,0,11.225,11.224A9,9,0,0,0,1144,329Zm-15,12.75a6.745,6.745,0,0,1-3-12.789c0,.013,0,.026,0,.039a9,9,0,0,0,9,9l.039,0A6.752,6.752,0,0,1,1129,341.75Zm6.712-6.038a6.744,6.744,0,0,1-7.423-7.424,6.744,6.744,0,0,1,7.423,7.424Zm2.286-.673c0-.013,0-.026,0-.039a9,9,0,0,0-9-9l-.039,0a6.745,6.745,0,1,1,9.037,9.037Z" transform="translate(-1120 -320)" fill="#A8B9E3"/>
</svg>
