<svg xmlns="http://www.w3.org/2000/svg" width="48" height="48" viewBox="0 0 48 48">
  <defs>
    <style>
      .cls-1 {
        fill: #0aa;
      }

      .cls-2 {
        fill: none;
      }

      .cls-3 {
        fill: #fff;
      }
    </style>
  </defs>
  <g id="Group_334" data-name="Group 334" transform="translate(-754 -1568)">
    <g id="Group_331" data-name="Group 331">
      <circle id="Ellipse_111" data-name="Ellipse 111" class="cls-1" cx="24" cy="24" r="24" transform="translate(754 1568)"/>
    </g>
    <g id="Group_261" data-name="Group 261" transform="translate(-160 1262.477)">
      <rect id="Rectangle_331" data-name="Rectangle 331" class="cls-2" width="21" height="21" transform="translate(928 319.523)"/>
      <path id="Path_910" data-name="Path 910" class="cls-3" d="M940.83,326.631a5.1,5.1,0,0,1-3.888-1.885,3.077,3.077,0,0,0-5.055,0A5.1,5.1,0,0,1,928,326.631v-1.924a3.235,3.235,0,0,0,2.527-1.322,4.952,4.952,0,0,1,7.776,0,3.075,3.075,0,0,0,5.052,0,5.1,5.1,0,0,1,3.886-1.886v1.924a3.234,3.234,0,0,0-2.526,1.322A5.1,5.1,0,0,1,940.83,326.631Z" transform="translate(0 -0.538)"/>
      <path id="Path_911" data-name="Path 911" class="cls-3" d="M940.83,336.631a5.1,5.1,0,0,1-3.888-1.885,3.077,3.077,0,0,0-5.055,0A5.1,5.1,0,0,1,928,336.631v-1.924a3.235,3.235,0,0,0,2.527-1.322,4.952,4.952,0,0,1,7.776,0,3.075,3.075,0,0,0,5.052,0,5.1,5.1,0,0,1,3.886-1.886v1.924a3.234,3.234,0,0,0-2.526,1.322A5.1,5.1,0,0,1,940.83,336.631Z" transform="translate(0 -4.124)"/>
      <path id="Path_912" data-name="Path 912" class="cls-3" d="M940.83,346.631a5.1,5.1,0,0,1-3.888-1.885,3.077,3.077,0,0,0-5.055,0A5.1,5.1,0,0,1,928,346.631v-1.924a3.235,3.235,0,0,0,2.527-1.322,4.952,4.952,0,0,1,7.776,0,3.075,3.075,0,0,0,5.052,0,5.1,5.1,0,0,1,3.886-1.886v1.924a3.234,3.234,0,0,0-2.526,1.322A5.1,5.1,0,0,1,940.83,346.631Z" transform="translate(0 -7.711)"/>
    </g>
  </g>
</svg>
