<svg xmlns="http://www.w3.org/2000/svg" width="233" height="21.87" viewBox="0 0 233 21.87">
  <g id="Group_365" data-name="Group 365" transform="translate(-80 -13010.13)">
    <path id="Path_1027" data-name="Path 1027" d="M8.816-3.021c0-1.444-.874-2.337-2.831-2.793l-1.577-.38c-.684-.152-.912-.4-.912-.8,0-.475.437-.779,1.254-.779A4.6,4.6,0,0,1,7.505-6.707L8.721-8.645A6.742,6.742,0,0,0,4.731-9.88a4.06,4.06,0,0,0-2.717.874A2.608,2.608,0,0,0,.969-6.9c0,1.52.931,2.527,2.755,2.926l1.368.3c.836.171,1.14.418,1.14.874,0,.589-.532.931-1.463.931A5.029,5.029,0,0,1,1.691-3.04L.456-1.159A7.447,7.447,0,0,0,4.94.228C7.315.228,8.816-1.1,8.816-3.021Zm1.9-.19a3.513,3.513,0,0,0,.912,2.47A3.277,3.277,0,0,0,14.1.228a3.252,3.252,0,0,0,2.869-1.52V0h2.584V-9.652H16.815V-4.56c0,1.52-.684,2.47-1.843,2.47-1.045,0-1.52-.475-1.52-1.691V-9.652H10.716ZM27.74-9.88a3.763,3.763,0,0,0-3.078,1.425v-1.2H22.078V4.142h2.736V-1.026A3.712,3.712,0,0,0,27.74.228a3.958,3.958,0,0,0,3.173-1.444A5.419,5.419,0,0,0,32.167-4.9a5.25,5.25,0,0,0-1.235-3.591A4.038,4.038,0,0,0,27.74-9.88Zm1.653,5.054c0,1.672-.893,2.812-2.261,2.812-1.387,0-2.356-1.14-2.356-2.812,0-1.691.931-2.812,2.356-2.812C28.481-7.638,29.393-6.5,29.393-4.826ZM39.786-9.88a3.763,3.763,0,0,0-3.078,1.425v-1.2H34.124V4.142H36.86V-1.026A3.712,3.712,0,0,0,39.786.228a3.958,3.958,0,0,0,3.173-1.444A5.419,5.419,0,0,0,44.213-4.9a5.25,5.25,0,0,0-1.235-3.591A4.038,4.038,0,0,0,39.786-9.88Zm1.653,5.054c0,1.672-.893,2.812-2.261,2.812-1.387,0-2.356-1.14-2.356-2.812,0-1.691.931-2.812,2.356-2.812C40.527-7.638,41.439-6.5,41.439-4.826Zm4.161,0a4.972,4.972,0,0,0,1.387,3.667A4.972,4.972,0,0,0,50.654.228,4.987,4.987,0,0,0,54.34-1.159a4.985,4.985,0,0,0,1.406-3.667A4.94,4.94,0,0,0,54.34-8.474,5,5,0,0,0,50.654-9.88a4.985,4.985,0,0,0-3.667,1.406A4.927,4.927,0,0,0,45.6-4.826Zm7.372,0c0,1.672-.893,2.774-2.318,2.774-1.387,0-2.28-1.1-2.28-2.774,0-1.691.893-2.793,2.28-2.793C52.079-7.619,52.972-6.517,52.972-4.826ZM60.42,0V-4.009c0-2.147.893-3.325,2.546-3.325a3,3,0,0,1,.722.076l.228-2.394A4.481,4.481,0,0,0,63-9.747a2.987,2.987,0,0,0-2.736,1.919V-9.652H57.684V0Zm5.643-2.907c0,2.052,1.178,3.135,3.458,3.135a4.47,4.47,0,0,0,2.7-.836l-.665-2.014a2.974,2.974,0,0,1-1.52.532c-.893,0-1.235-.323-1.235-1.254V-7.505H71.44V-9.652H68.8V-13.3l-2.736.931v2.717H64.5v2.147h1.558Zm16.378.323c.285,1.064,1.159,1.6,2.584,1.6a3.6,3.6,0,0,0,2.945-1.52,6.429,6.429,0,0,0,1.2-4.066,6.535,6.535,0,0,0-2.09-5.035,7.813,7.813,0,0,0-5.51-1.919,8.262,8.262,0,0,0-6.08,2.356,8.745,8.745,0,0,0-2.394,6.061A8.128,8.128,0,0,0,75.183.8a7.821,7.821,0,0,0,5.871,2.147A9.491,9.491,0,0,0,86.108,1.52L85.4.266a9.329,9.329,0,0,1-2.223.95,8.033,8.033,0,0,1-2.109.247c-3.952,0-6.137-2.375-6.137-6.631a6.924,6.924,0,0,1,1.786-4.94,6.284,6.284,0,0,1,4.845-1.938,5.764,5.764,0,0,1,4.18,1.444,5.7,5.7,0,0,1,1.577,4.085A5.726,5.726,0,0,1,86.735-3.7c-.4.7-.855,1.064-1.406,1.064-.665,0-.893-.475-.741-1.387l.969-5.453H83.239l-.171,1.045a2.268,2.268,0,0,0-2.223-1.235,3.5,3.5,0,0,0-2.926,1.6,6.712,6.712,0,0,0-1.14,4.009A2.9,2.9,0,0,0,79.667-.874,3.275,3.275,0,0,0,82.441-2.584ZM79.173-4.1a5.568,5.568,0,0,1,.57-2.622q.6-1.083,1.425-1.083c.855,0,1.311.57,1.311,1.691a4.216,4.216,0,0,1-.646,2.356,1.734,1.734,0,0,1-1.444.988A1.163,1.163,0,0,1,79.173-4.1Zm21.071-2.185a3.659,3.659,0,0,0-.95-2.565A3.279,3.279,0,0,0,96.767-9.88a3.345,3.345,0,0,0-2.831,1.33v-5.32H91.2V0h2.736V-5.111c0-1.52.741-2.47,1.957-2.47,1.083,0,1.615.57,1.615,1.881V0h2.736Zm1.843,1.463a4.972,4.972,0,0,0,1.387,3.667A4.972,4.972,0,0,0,107.141.228a4.987,4.987,0,0,0,3.686-1.387,4.985,4.985,0,0,0,1.406-3.667,4.94,4.94,0,0,0-1.406-3.648,5,5,0,0,0-3.686-1.406,4.985,4.985,0,0,0-3.667,1.406A4.927,4.927,0,0,0,102.087-4.826Zm7.372,0c0,1.672-.893,2.774-2.318,2.774-1.387,0-2.28-1.1-2.28-2.774,0-1.691.893-2.793,2.28-2.793C108.566-7.619,109.459-6.517,109.459-4.826Zm4.142,0a4.972,4.972,0,0,0,1.387,3.667A4.972,4.972,0,0,0,118.655.228a4.987,4.987,0,0,0,3.686-1.387,4.985,4.985,0,0,0,1.406-3.667,4.94,4.94,0,0,0-1.406-3.648,5,5,0,0,0-3.686-1.406,4.985,4.985,0,0,0-3.667,1.406A4.927,4.927,0,0,0,113.6-4.826Zm7.372,0c0,1.672-.893,2.774-2.318,2.774-1.387,0-2.28-1.1-2.28-2.774,0-1.691.893-2.793,2.28-2.793C120.08-7.619,120.973-6.517,120.973-4.826Zm13.433-.285c0-1.52.684-2.47,1.767-2.47.988,0,1.463.57,1.463,1.881V0h2.736V-6.289a3.719,3.719,0,0,0-.912-2.565,3,3,0,0,0-2.394-1.026,3.223,3.223,0,0,0-3.04,1.862A3.039,3.039,0,0,0,131.1-9.88a3.173,3.173,0,0,0-2.831,1.5V-9.652h-2.584V0h2.736V-5.111c0-1.5.665-2.47,1.786-2.47.988,0,1.463.57,1.463,1.881V0h2.736Zm15.96,2.09c0-1.444-.874-2.337-2.831-2.793l-1.577-.38c-.684-.152-.912-.4-.912-.8,0-.475.437-.779,1.254-.779a4.6,4.6,0,0,1,2.755,1.064l1.216-1.938a6.742,6.742,0,0,0-3.99-1.235,4.06,4.06,0,0,0-2.717.874A2.608,2.608,0,0,0,142.519-6.9c0,1.52.931,2.527,2.755,2.926l1.368.3c.836.171,1.14.418,1.14.874,0,.589-.532.931-1.463.931a5.029,5.029,0,0,1-3.078-1.178l-1.235,1.881A7.447,7.447,0,0,0,146.49.228C148.865.228,150.366-1.1,150.366-3.021ZM155.078,0V-13.87h-2.736V0Zm6.935.228a5,5,0,0,0,4.18-1.786l-1.52-1.6a3.151,3.151,0,0,1-2.451,1.216,2.278,2.278,0,0,1-2.489-2.223h6.555c.019-.285.057-.7.057-1.1a4.583,4.583,0,0,0-1.216-3.344,4.222,4.222,0,0,0-3.211-1.273A4.7,4.7,0,0,0,158.4-8.455a5.037,5.037,0,0,0-1.368,3.629,5.057,5.057,0,0,0,1.349,3.686A4.856,4.856,0,0,0,162.013.228Zm-.133-8.075c1.064,0,1.71.684,1.786,1.919H159.79A2.091,2.091,0,0,1,161.88-7.847ZM172.748.228a5,5,0,0,0,4.18-1.786l-1.52-1.6a3.151,3.151,0,0,1-2.451,1.216,2.278,2.278,0,0,1-2.489-2.223h6.555c.019-.285.057-.7.057-1.1a4.583,4.583,0,0,0-1.216-3.344,4.222,4.222,0,0,0-3.211-1.273,4.7,4.7,0,0,0-3.515,1.425,5.037,5.037,0,0,0-1.368,3.629,5.057,5.057,0,0,0,1.349,3.686A4.856,4.856,0,0,0,172.748.228Zm-.133-8.075c1.064,0,1.71.684,1.786,1.919h-3.876A2.091,2.091,0,0,1,172.615-7.847ZM184.737-9.88a3.763,3.763,0,0,0-3.078,1.425v-1.2h-2.584V4.142h2.736V-1.026A3.712,3.712,0,0,0,184.737.228a3.958,3.958,0,0,0,3.173-1.444A5.419,5.419,0,0,0,189.164-4.9a5.25,5.25,0,0,0-1.235-3.591A4.038,4.038,0,0,0,184.737-9.88Zm1.653,5.054c0,1.672-.893,2.812-2.261,2.812-1.387,0-2.356-1.14-2.356-2.812,0-1.691.931-2.812,2.356-2.812C185.478-7.638,186.39-6.5,186.39-4.826Zm4.256,3.382A1.7,1.7,0,0,0,192.394.228a1.7,1.7,0,0,0,1.748-1.672A1.7,1.7,0,0,0,192.394-3.1,1.7,1.7,0,0,0,190.646-1.444Zm9.9,1.672a4.525,4.525,0,0,0,4.389-2.964L202.73-3.8c-.513,1.216-1.2,1.767-2.128,1.767-1.311,0-2.2-1.083-2.2-2.736,0-1.672.874-2.774,2.185-2.774a2.151,2.151,0,0,1,1.976,1.5l2.3-1.045a4.367,4.367,0,0,0-4.313-2.793,4.694,4.694,0,0,0-3.553,1.425,5.112,5.112,0,0,0-1.368,3.686A5.037,5.037,0,0,0,196.935-1.1,4.863,4.863,0,0,0,200.545.228Zm5.491-5.054a4.972,4.972,0,0,0,1.387,3.667A4.972,4.972,0,0,0,211.09.228a4.987,4.987,0,0,0,3.686-1.387,4.985,4.985,0,0,0,1.406-3.667,4.94,4.94,0,0,0-1.406-3.648A5,5,0,0,0,211.09-9.88a4.985,4.985,0,0,0-3.667,1.406A4.927,4.927,0,0,0,206.036-4.826Zm7.372,0c0,1.672-.893,2.774-2.318,2.774-1.387,0-2.28-1.1-2.28-2.774,0-1.691.893-2.793,2.28-2.793C212.515-7.619,213.408-6.517,213.408-4.826Zm13.433-.285c0-1.52.684-2.47,1.767-2.47.988,0,1.463.57,1.463,1.881V0h2.736V-6.289a3.719,3.719,0,0,0-.912-2.565A3,3,0,0,0,229.5-9.88a3.223,3.223,0,0,0-3.04,1.862,3.039,3.039,0,0,0-2.926-1.862,3.173,3.173,0,0,0-2.831,1.5V-9.652H218.12V0h2.736V-5.111c0-1.5.665-2.47,1.786-2.47.988,0,1.463.57,1.463,1.881V0h2.736Z" transform="translate(80 13024)" fill="#9AA6E6 "/>
    <rect id="Rectangle_462" data-name="Rectangle 462" width="233" height="2" transform="translate(80 13030)" fill="#9AA6E6"/>
  </g>
</svg>
